<svg version="1.1" id="Layer_1" xmlns="http://www.w3.org/2000/svg" xmlns:xlink="http://www.w3.org/1999/xlink" x="0px" y="0px"
	 width="100%" viewBox="0 0 1366 768" enable-background="new 0 0 1366 768" xml:space="preserve">
<path fill="#0097B2" opacity="1.000000" stroke="none" 
	d="
M0.999994,459.000000 
	C1.000000,306.374023 1.000000,153.748032 1.000000,1.000000 
	C363.362701,1.000000 725.725403,1.000000 1088.559326,1.407200 
	C1093.733276,25.734255 1102.715210,48.085598 1114.572998,69.244125 
	C1131.736816,99.870255 1153.783203,126.615448 1180.314941,149.622543 
	C1199.260132,166.051010 1219.573364,180.453949 1242.358032,191.168411 
	C1271.701172,204.966949 1302.280151,213.579422 1334.987427,211.790314 
	C1345.713623,211.203613 1356.332153,208.652695 1367.000000,207.000000 
	C1367.000000,394.288452 1367.000000,581.576904 1367.000000,769.000000 
	C981.637329,769.000000 596.274597,769.000000 210.479279,768.615479 
	C211.709015,762.996277 213.365662,757.759888 215.034668,752.527405 
	C222.580154,728.871277 226.722412,704.563416 226.678833,679.802246 
	C226.641800,658.766785 223.801727,637.921631 216.403168,618.000488 
	C207.107117,592.970215 192.608353,571.814026 169.484482,557.618408 
	C149.478470,545.336853 129.184799,533.521606 108.956726,521.604797 
	C82.561241,506.054596 56.130886,490.563110 29.661217,475.139648 
	C20.188797,469.620178 10.558325,464.372009 0.999994,459.000000 
M1179.554810,485.403168 
	C1179.020630,484.914032 1178.486328,484.424866 1178.430298,483.114929 
	C1178.643188,481.476257 1179.027954,479.839172 1179.043213,478.198639 
	C1179.295898,450.875854 1179.481079,423.552429 1179.724976,396.229553 
	C1179.965820,369.242340 1180.248169,342.255463 1180.535522,315.268707 
	C1180.563354,312.650085 1180.129028,309.798248 1183.778931,308.886749 
	C1190.033691,307.324707 1192.283691,302.211578 1192.410156,296.789093 
	C1192.833496,278.636261 1192.792358,260.468109 1192.623169,242.308685 
	C1192.571899,236.807236 1188.296997,233.045670 1182.130005,232.730606 
	C1181.790161,232.633636 1181.450439,232.536652 1181.316650,231.555923 
	C1181.086304,224.243912 1181.215942,216.895950 1180.490479,209.633408 
	C1180.057007,205.295181 1178.283325,201.090851 1177.152344,196.129105 
	C1175.461548,192.581085 1174.265747,188.673050 1171.993042,185.548264 
	C1162.839966,172.963531 1148.924438,170.891541 1135.244751,172.062424 
	C1105.908936,174.573410 1076.703735,178.608902 1047.445190,182.022598 
	C1028.104858,184.279129 1008.755554,186.462997 989.428345,188.827805 
	C977.963196,190.230652 968.734741,194.939590 964.505554,207.190109 
	C962.936584,212.735519 960.394043,218.213638 960.005066,223.840637 
	C959.237366,234.946518 959.579346,246.135101 959.610168,257.289093 
	C959.697144,288.767120 959.808899,320.245300 960.050354,351.722351 
	C960.083069,355.985687 959.094666,358.368073 954.253540,358.102692 
	C949.105896,357.820526 943.930237,357.881348 938.771973,358.004700 
	C932.859619,358.146057 929.671875,360.461243 929.592468,366.283752 
	C929.379333,381.921295 929.578308,397.576294 930.127319,413.206299 
	C930.331848,419.028320 933.362976,421.299774 939.164185,421.926270 
	C942.309082,422.265869 945.464722,422.506439 948.687805,423.006165 
	C948.687805,423.006165 949.101135,423.135559 949.101135,423.135559 
	C949.101135,423.135559 949.381226,422.823090 950.400696,422.801544 
	C951.427307,422.897980 952.453979,422.994415 954.067810,423.357574 
	C956.568665,424.115234 959.563049,424.293884 959.455139,428.057800 
	C959.365906,431.169373 959.213928,434.283020 959.252625,437.393707 
	C959.540222,460.538605 959.889832,483.682770 960.178345,506.827667 
	C960.502075,532.806091 960.303772,558.802246 961.237610,584.758118 
	C961.943665,604.385315 974.872070,620.235840 994.714172,622.936218 
	C1006.549500,624.546875 1018.216187,627.445740 1029.925415,629.922668 
	C1043.914307,632.881836 1057.861938,636.036438 1071.838013,639.056763 
	C1090.688721,643.130493 1109.519653,647.304565 1128.418701,651.141968 
	C1137.927124,653.072632 1147.575195,654.423157 1156.731934,647.649658 
	C1156.894775,647.534790 1157.057739,647.419922 1157.506958,647.400940 
	C1157.758179,647.184082 1158.009521,646.967224 1159.084839,646.466797 
	C1170.734009,642.691101 1175.578857,633.322632 1177.301636,622.427612 
	C1178.667480,613.790283 1178.557007,604.878601 1178.616821,596.085449 
	C1178.703857,583.283203 1178.355103,570.477905 1178.798828,557.555298 
	C1184.020264,554.548706 1184.766357,549.429810 1184.804443,544.186157 
	C1184.913940,529.060181 1184.728760,513.931519 1184.914185,498.807007 
	C1184.976440,493.731140 1184.211060,489.263977 1179.554810,485.403168 
z"/>
<path fill="#004AAD" opacity="1.000000" stroke="none" 
	d="
M0.999994,459.468689 
	C10.558325,464.372009 20.188797,469.620178 29.661217,475.139648 
	C56.130886,490.563110 82.561241,506.054596 108.956726,521.604797 
	C129.184799,533.521606 149.478470,545.336853 169.484482,557.618408 
	C192.608353,571.814026 207.107117,592.970215 216.403168,618.000488 
	C223.801727,637.921631 226.641800,658.766785 226.678833,679.802246 
	C226.722412,704.563416 222.580154,728.871277 215.034668,752.527405 
	C213.365662,757.759888 211.709015,762.996277 210.023346,768.615479 
	C140.392090,769.000000 70.784164,769.000000 1.000000,769.000000 
	C1.000000,665.979187 1.000000,562.958252 0.999994,459.468689 
z"/>
<path fill="#004AAD" opacity="1.000000" stroke="none" 
	d="
M1367.000000,206.531342 
	C1356.332153,208.652695 1345.713623,211.203613 1334.987427,211.790314 
	C1302.280151,213.579422 1271.701172,204.966949 1242.358032,191.168411 
	C1219.573364,180.453949 1199.260132,166.051010 1180.314941,149.622543 
	C1153.783203,126.615448 1131.736816,99.870255 1114.572998,69.244125 
	C1102.715210,48.085598 1093.733276,25.734255 1089.015259,1.407200 
	C1181.582886,1.000000 1274.165649,1.000000 1367.000000,1.000000 
	C1367.000000,69.354019 1367.000000,137.708359 1367.000000,206.531342 
z"/>
<path fill="#F088B7" opacity="1.000000" stroke="none" 
	d="
M1181.110596,232.439667 
	C1181.450439,232.536652 1181.790161,232.633636 1182.855103,232.993256 
	C1185.081787,235.818359 1187.855103,238.367981 1187.880981,240.945343 
	C1188.065186,259.197754 1187.778687,277.457642 1187.423096,295.710846 
	C1187.332397,300.375671 1185.219727,303.964508 1180.885986,306.632904 
	C1175.545654,309.920959 1170.008667,308.475220 1164.168701,308.550598 
	C1163.006226,308.351868 1162.177856,308.212799 1161.352783,308.229828 
	C1128.231323,308.914337 1095.108154,309.532806 1061.990967,310.386292 
	C1056.250244,310.534271 1050.535400,311.684723 1044.440186,312.276184 
	C1034.166992,309.621704 1032.564331,308.234467 1032.410522,297.928040 
	C1032.167969,281.660645 1032.601929,265.383118 1032.928223,248.821686 
	C1033.442017,247.701462 1033.777222,246.869431 1034.396484,245.847778 
	C1037.469116,244.392715 1040.174561,242.293427 1043.060669,242.005417 
	C1055.898193,240.724380 1068.786621,239.951447 1081.657959,239.014313 
	C1102.318604,237.510040 1122.981689,236.037231 1143.641113,234.517181 
	C1150.925781,233.981186 1158.203125,233.345398 1165.747437,232.752029 
	C1167.089844,232.489807 1168.168579,232.230743 1169.583252,232.083893 
	C1170.628906,232.219482 1171.338745,232.242859 1172.408325,232.369568 
	C1174.895264,232.454544 1177.022461,232.436172 1179.355225,232.462158 
	C1180.077393,232.484222 1180.593994,232.461945 1181.110596,232.439667 
M1132.203491,281.690826 
	C1131.799561,283.764984 1131.395508,285.839142 1130.967529,288.036469 
	C1134.977173,289.319214 1137.575562,289.227539 1139.092041,284.807098 
	C1139.578247,283.390045 1142.565796,282.228516 1144.497559,282.076324 
	C1146.507202,281.918030 1150.207397,282.766815 1150.435913,283.787262 
	C1151.869507,290.187714 1155.766113,287.807312 1160.075195,287.271271 
	C1156.941772,276.730072 1153.902100,266.772339 1151.053711,256.760223 
	C1150.190186,253.725418 1149.097656,251.876633 1145.387817,251.941574 
	C1141.577759,252.008270 1140.237183,253.858643 1139.344971,257.114899 
	C1137.163086,265.077789 1134.741943,272.975189 1132.203491,281.690826 
M1090.394653,285.094788 
	C1091.586426,289.332764 1093.912842,291.320190 1098.632324,289.048767 
	C1098.632324,288.308594 1098.813965,287.458160 1098.604736,286.718292 
	C1095.975830,277.423950 1093.447266,268.094452 1090.453735,258.917267 
	C1089.994995,257.511230 1087.311523,256.013062 1085.679199,256.037567 
	C1084.043335,256.062164 1081.423828,257.625092 1080.978638,259.056091 
	C1078.008057,268.603668 1075.491333,278.292938 1072.875000,287.949127 
	C1072.676880,288.680359 1072.848877,289.511871 1072.848877,291.393555 
	C1075.325684,290.516479 1078.446777,290.263733 1078.795166,289.146515 
	C1080.743042,282.898804 1085.374878,284.276703 1090.394653,285.094788 
M1117.004395,271.328430 
	C1116.416748,273.213562 1115.829224,275.098694 1115.241577,276.983795 
	C1113.645386,275.243530 1113.170776,273.688751 1112.745972,272.120453 
	C1111.412354,267.195557 1110.047241,262.278381 1108.793701,257.333008 
	C1107.995850,254.185471 1105.647583,253.765274 1103.454956,254.925766 
	C1102.376099,255.496765 1101.479614,258.065338 1101.818237,259.394043 
	C1104.036621,268.098694 1106.706787,276.687134 1109.025635,285.367981 
	C1109.812744,288.314606 1111.321655,289.375336 1114.329590,289.288971 
	C1117.292480,289.203918 1119.286499,288.674561 1120.171143,285.322784 
	C1122.548706,276.314636 1125.280029,267.400238 1127.813599,258.432434 
	C1128.239380,256.925323 1128.378662,255.337265 1128.660278,253.729965 
	C1123.960205,252.465607 1121.390869,253.350861 1120.529419,258.017456 
	C1119.746460,262.258636 1118.329956,266.382904 1117.004395,271.328430 
M1063.755371,257.196625 
	C1063.156982,258.768677 1062.106812,260.322571 1062.042725,261.916138 
	C1061.821899,267.405609 1062.059326,272.912781 1061.873779,278.404816 
	C1061.811401,280.252258 1061.007080,282.074677 1060.427734,284.358337 
	C1058.979004,283.401306 1058.412720,283.227081 1058.194702,282.850952 
	C1056.691406,280.257172 1054.205566,279.031464 1052.135376,281.090668 
	C1051.100830,282.119812 1051.267090,285.982849 1052.379883,287.183624 
	C1054.311890,289.268433 1057.374146,291.419373 1060.009644,291.479553 
	C1064.038330,291.571564 1067.512207,288.723053 1067.847046,284.419250 
	C1068.478394,276.305756 1068.569336,268.137543 1068.477173,259.996765 
	C1068.465942,258.999573 1065.953369,258.030701 1063.755371,257.196625 
z"/>
<path fill="#423A9C" opacity="1.000000" stroke="none" 
	d="
M1164.504517,308.683105 
	C1170.008667,308.475220 1175.545654,309.920959 1180.885986,306.632904 
	C1185.219727,303.964508 1187.332397,300.375671 1187.423096,295.710846 
	C1187.778687,277.457642 1188.065186,259.197754 1187.880981,240.945343 
	C1187.855103,238.367981 1185.081787,235.818359 1183.377441,233.083771 
	C1188.296997,233.045670 1192.571899,236.807236 1192.623169,242.308685 
	C1192.792358,260.468109 1192.833496,278.636261 1192.410156,296.789093 
	C1192.283691,302.211578 1190.033691,307.324707 1183.778931,308.886749 
	C1180.129028,309.798248 1180.563354,312.650085 1180.535522,315.268707 
	C1180.248169,342.255463 1179.965820,369.242340 1179.724976,396.229553 
	C1179.481079,423.552429 1179.295898,450.875854 1179.043213,478.198639 
	C1179.027954,479.839172 1178.643188,481.476257 1178.150635,483.549805 
	C1177.870972,483.984680 1177.827026,484.078613 1177.453857,483.973297 
	C1173.957397,483.235535 1170.834351,482.603088 1167.828857,481.600311 
	C1168.082886,479.420074 1168.330688,477.610657 1168.338257,475.800262 
	C1168.416504,456.991547 1168.432373,438.182648 1168.511597,419.373962 
	C1168.653198,385.720856 1168.828369,352.067932 1168.974365,318.414856 
	C1168.977905,317.588043 1169.091919,316.531311 1168.653564,315.980652 
	C1167.725952,314.815704 1166.466675,313.914825 1165.215698,312.571167 
	C1164.992188,312.017914 1164.896606,311.799194 1164.844727,311.218384 
	C1164.760498,310.131897 1164.632446,309.407501 1164.504517,308.683105 
z"/>
<path fill="#7366D2" opacity="1.000000" stroke="none" 
	d="
M1169.247437,231.971680 
	C1168.168579,232.230743 1167.089844,232.489807 1165.699951,232.312317 
	C1165.378052,225.556396 1165.948120,219.167740 1165.205078,212.935684 
	C1164.331421,205.609512 1163.357544,197.983002 1160.543457,191.277115 
	C1156.762329,182.266144 1149.311401,175.643936 1139.031006,176.169449 
	C1122.975952,176.990158 1106.995850,179.274200 1090.595215,180.870911 
	C1088.416504,181.039536 1086.626709,181.275513 1084.395508,181.509491 
	C1081.606201,181.796829 1079.258301,182.086151 1076.597656,182.310608 
	C1075.681763,182.430481 1075.078369,182.615219 1074.100708,182.726013 
	C1071.478394,182.961288 1069.230347,183.270477 1066.549561,183.513626 
	C1062.743286,183.960037 1059.369873,184.472519 1055.625122,184.923813 
	C1053.528198,185.081558 1051.802612,185.300476 1049.620605,185.467865 
	C1029.835938,187.630203 1010.539307,190.196289 991.167908,191.924759 
	C979.690857,192.948837 970.671143,197.036819 964.975586,207.247910 
	C964.908508,207.091232 964.783081,206.774292 964.783081,206.774292 
	C968.734741,194.939590 977.963196,190.230652 989.428345,188.827805 
	C1008.755554,186.462997 1028.104858,184.279129 1047.445190,182.022598 
	C1076.703735,178.608902 1105.908936,174.573410 1135.244751,172.062424 
	C1148.924438,170.891541 1162.839966,172.963531 1171.993042,185.548264 
	C1174.265747,188.673050 1175.461548,192.581085 1176.836914,196.544067 
	C1171.083740,198.481247 1169.655518,202.200455 1169.789795,207.575272 
	C1169.992798,215.697815 1169.464722,223.838638 1169.247437,231.971680 
z"/>
<path fill="#4463A6" opacity="1.000000" stroke="none" 
	d="
M1156.212524,647.946472 
	C1147.575195,654.423157 1137.927124,653.072632 1128.418701,651.141968 
	C1109.519653,647.304565 1090.688721,643.130493 1071.838013,639.056763 
	C1057.861938,636.036438 1043.914307,632.881836 1029.925415,629.922668 
	C1018.216187,627.445740 1006.549500,624.546875 994.714172,622.936218 
	C974.872070,620.235840 961.943665,604.385315 961.237610,584.758118 
	C960.303772,558.802246 960.502075,532.806091 960.178345,506.827667 
	C959.889832,483.682770 959.540222,460.538605 959.252625,437.393707 
	C959.213928,434.283020 959.365906,431.169373 959.455139,428.057800 
	C959.563049,424.293884 956.568665,424.115234 954.139404,423.149109 
	C955.505493,422.843170 956.800049,422.745636 958.460449,422.683472 
	C959.314636,422.718719 959.803040,422.718628 960.452393,422.976166 
	C960.874939,423.983978 961.136475,424.734131 961.328491,425.981079 
	C961.366028,446.615753 961.473022,466.753632 961.472412,487.160583 
	C961.461731,490.354034 961.558655,493.278381 961.674133,496.721069 
	C961.857971,517.171021 962.023315,537.102539 962.110107,557.493958 
	C962.324341,566.161133 962.617126,574.368530 962.794006,582.874512 
	C962.806519,583.792664 962.934998,584.412170 963.012146,585.402344 
	C963.224243,587.190552 963.487671,588.608032 963.714600,590.377686 
	C964.081177,591.826599 964.484253,592.923462 964.875244,594.395386 
	C968.587952,606.686646 975.726624,615.373901 988.370056,618.070740 
	C1035.171753,628.053650 1082.017334,637.829651 1128.837646,647.725464 
	C1139.253540,649.926941 1148.677124,648.781738 1156.387695,640.347656 
	C1157.257080,640.561096 1157.880859,640.717957 1158.419312,641.172668 
	C1157.179077,642.749634 1155.833252,643.916992 1154.981445,645.373352 
	C1154.712280,645.833557 1155.764893,647.066895 1156.212524,647.946472 
z"/>
<path fill="#423A9C" opacity="1.000000" stroke="none" 
	d="
M1156.472168,647.798096 
	C1155.764893,647.066895 1154.712280,645.833557 1154.981445,645.373352 
	C1155.833252,643.916992 1157.179077,642.749634 1158.716431,640.967285 
	C1161.539062,635.826355 1165.833496,631.292175 1166.098755,626.533386 
	C1167.251709,605.844299 1167.319580,585.090515 1167.473145,564.357910 
	C1167.485840,562.648132 1165.184448,560.921265 1163.905273,558.935303 
	C1163.844116,558.487000 1163.835815,558.305725 1164.075928,557.996094 
	C1164.542725,557.575745 1164.760986,557.283752 1165.362061,556.983215 
	C1169.428345,556.561462 1173.111816,556.148193 1176.986816,555.967896 
	C1177.516357,556.691833 1177.854248,557.182861 1178.192139,557.673950 
	C1178.355103,570.477905 1178.703857,583.283203 1178.616821,596.085449 
	C1178.557007,604.878601 1178.667480,613.790283 1177.301636,622.427612 
	C1175.578857,633.322632 1170.734009,642.691101 1158.561646,646.576172 
	C1157.765869,646.892029 1157.493286,647.098450 1157.220825,647.304932 
	C1157.057739,647.419922 1156.894775,647.534790 1156.472168,647.798096 
z"/>
<path fill="#B5B49B" opacity="1.000000" stroke="none" 
	d="
M958.094604,422.648132 
	C956.800049,422.745636 955.505493,422.843170 953.845764,423.015747 
	C952.453979,422.994415 951.427307,422.897980 949.777100,422.733948 
	C948.951355,422.609192 948.771973,422.650970 948.615479,422.791687 
	C945.464722,422.506439 942.309082,422.265869 939.164185,421.926270 
	C933.362976,421.299774 930.331848,419.028320 930.127319,413.206299 
	C929.578308,397.576294 929.379333,381.921295 929.592468,366.283752 
	C929.671875,360.461243 932.859619,358.146057 938.771973,358.004700 
	C943.930237,357.881348 949.105896,357.820526 954.253540,358.102692 
	C959.094666,358.368073 960.083069,355.985687 960.050354,351.722351 
	C959.808899,320.245300 959.697144,288.767120 959.610168,257.289093 
	C959.579346,246.135101 959.237366,234.946518 960.005066,223.840637 
	C960.394043,218.213638 962.936584,212.735519 964.644287,206.982208 
	C964.783081,206.774292 964.908508,207.091232 964.911804,207.513687 
	C963.339783,214.838547 960.425476,221.737457 960.407349,228.643936 
	C960.293945,272.005249 960.825378,315.368195 960.857422,358.861786 
	C959.985718,359.230072 959.400024,359.467194 958.364136,359.690063 
	C953.711304,359.728119 949.508728,359.780426 944.954224,359.687195 
	C942.044250,359.672028 939.486145,359.802399 936.568970,359.977631 
	C931.823486,361.587952 930.930298,365.234283 930.976929,369.230713 
	C931.124146,381.851868 931.389343,394.471680 931.612427,407.091949 
	C931.810913,418.320251 933.734558,420.333771 944.978943,420.976471 
	C947.632629,421.128143 950.310913,420.987000 952.946228,421.272644 
	C954.691589,421.461823 956.380432,422.171478 958.094604,422.648132 
z"/>
<path fill="#423A9C" opacity="1.000000" stroke="none" 
	d="
M1169.583252,232.083893 
	C1169.464722,223.838638 1169.992798,215.697815 1169.789795,207.575272 
	C1169.655518,202.200455 1171.083740,198.481247 1176.816895,196.892670 
	C1178.283325,201.090851 1180.057007,205.295181 1180.490479,209.633408 
	C1181.215942,216.895950 1181.086304,224.243912 1181.213623,231.997803 
	C1180.593994,232.461945 1180.077393,232.484222 1178.988770,232.297363 
	C1176.294067,232.147568 1174.171265,232.206909 1172.048462,232.266235 
	C1171.338745,232.242859 1170.628906,232.219482 1169.583252,232.083893 
z"/>
<path fill="#4463A6" opacity="1.000000" stroke="none" 
	d="
M1178.495483,557.614624 
	C1177.854248,557.182861 1177.516357,556.691833 1177.168457,555.657959 
	C1178.148682,552.879456 1179.823120,550.694763 1179.993896,548.398193 
	C1180.423096,542.632019 1180.172363,536.815247 1180.272461,530.554016 
	C1179.881226,516.120300 1179.395386,502.151886 1178.988647,488.181122 
	C1178.967896,487.469757 1179.625977,486.738617 1179.980957,486.000977 
	C1179.993896,485.985260 1180.015015,485.950684 1180.015015,485.950684 
	C1184.211060,489.263977 1184.976440,493.731140 1184.914185,498.807007 
	C1184.728760,513.931519 1184.913940,529.060181 1184.804443,544.186157 
	C1184.766357,549.429810 1184.020264,554.548706 1178.495483,557.614624 
z"/>
<path fill="#4463A6" opacity="1.000000" stroke="none" 
	d="
M1177.827026,484.078613 
	C1177.827026,484.078613 1177.870972,483.984680 1177.911621,483.960205 
	C1178.486328,484.424866 1179.020630,484.914032 1179.784912,485.676941 
	C1180.015015,485.950684 1179.993896,485.985260 1179.712646,485.879517 
	C1178.896484,485.208679 1178.361816,484.643646 1177.827026,484.078613 
z"/>
<path fill="#4463A6" opacity="1.000000" stroke="none" 
	d="
M1157.363892,647.352905 
	C1157.493286,647.098450 1157.765869,646.892029 1158.149658,646.717957 
	C1158.009521,646.967224 1157.758179,647.184082 1157.363892,647.352905 
z"/>
<path fill="#4463A6" opacity="1.000000" stroke="none" 
	d="
M948.651611,422.898926 
	C948.771973,422.650970 948.951355,422.609192 949.267334,422.744720 
	C949.381226,422.823090 949.101135,423.135559 949.101135,423.135559 
	C949.101135,423.135559 948.687805,423.006165 948.651611,422.898926 
z"/>
<path fill="#F9F8FE" opacity="1.000000" stroke="none" 
	d="
M961.143494,358.730621 
	C960.825378,315.368195 960.293945,272.005249 960.407349,228.643936 
	C960.425476,221.737457 963.339783,214.838547 964.978882,207.670364 
	C970.671143,197.036819 979.690857,192.948837 991.167908,191.924759 
	C1010.539307,190.196289 1029.835938,187.630203 1049.480225,185.821747 
	C1047.488647,187.650726 1045.261353,190.115128 1042.857544,190.301331 
	C1035.848022,190.844376 1029.231689,192.382095 1022.633728,194.762756 
	C1019.663879,195.834381 1018.265320,196.946320 1017.968323,200.118896 
	C1017.173462,208.609711 1019.299377,216.425476 1022.307495,224.247742 
	C1023.329224,226.904678 1023.524475,230.512527 1022.597656,233.161011 
	C1020.282104,239.777634 1024.214844,246.211807 1031.117310,246.026810 
	C1032.114868,246.000076 1033.114014,246.032425 1034.112427,246.037415 
	C1033.777222,246.869431 1033.442017,247.701462 1032.753418,249.008469 
	C1031.949463,250.013077 1031.499023,250.542709 1030.721680,251.207397 
	C1029.265503,253.939529 1027.288086,256.496094 1027.161865,259.140991 
	C1026.741333,267.950043 1027.032227,276.791229 1026.953857,285.619232 
	C1026.916992,289.765869 1023.772095,293.927643 1027.051880,298.444824 
	C1027.058472,299.881866 1027.061279,300.927002 1026.792725,302.218567 
	C1024.033203,307.571075 1026.807861,314.795532 1033.024658,317.501404 
	C1037.025635,319.242798 1038.033936,321.953522 1037.992920,325.724640 
	C1037.974854,327.390778 1037.952881,329.060272 1038.032104,330.723511 
	C1038.375366,337.934967 1043.291382,342.413849 1050.400024,343.133545 
	C1054.402344,343.538696 1058.503784,344.812225 1062.127197,346.582062 
	C1065.631714,348.293762 1068.523926,351.225342 1071.784180,353.477570 
	C1080.494629,359.495148 1084.203003,368.246094 1083.810303,378.298523 
	C1083.474854,386.884491 1081.827148,395.461792 1080.218018,403.940094 
	C1079.182251,409.396881 1077.161499,414.666138 1075.592285,420.022400 
	C1074.387207,424.136139 1071.449829,425.356323 1067.489868,424.469025 
	C1067.680542,407.108826 1067.998413,390.182678 1068.005981,373.256348 
	C1068.008301,367.989716 1065.777344,363.600647 1059.899414,361.138794 
	C1058.798462,360.798126 1058.360718,360.653809 1057.840820,360.365112 
	C1056.599121,360.170258 1055.439331,360.119751 1053.735352,359.989929 
	C1046.080566,359.752563 1038.970459,359.505249 1031.859131,359.455109 
	C1017.311768,359.352570 1002.763672,359.355957 987.851318,359.235168 
	C985.998352,359.189392 984.510071,359.224152 982.559570,359.165039 
	C975.112793,358.957672 968.128174,358.844147 961.143494,358.730621 
z"/>
<path fill="#FEFDFE" opacity="1.000000" stroke="none" 
	d="
M1034.396484,245.847778 
	C1033.114014,246.032425 1032.114868,246.000076 1031.117310,246.026810 
	C1024.214844,246.211807 1020.282104,239.777634 1022.597656,233.161011 
	C1023.524475,230.512527 1023.329224,226.904678 1022.307495,224.247742 
	C1019.299377,216.425476 1017.173462,208.609711 1017.968323,200.118896 
	C1018.265320,196.946320 1019.663879,195.834381 1022.633728,194.762756 
	C1029.231689,192.382095 1035.848022,190.844376 1042.857544,190.301331 
	C1045.261353,190.115128 1047.488647,187.650726 1049.936768,185.873260 
	C1051.802612,185.300476 1053.528198,185.081558 1055.838745,185.224289 
	C1060.453613,187.602951 1064.247437,188.377319 1066.982422,183.579681 
	C1069.230347,183.270477 1071.478394,182.961288 1074.418457,182.747955 
	C1075.710449,182.687698 1076.310425,182.531586 1076.910278,182.375473 
	C1079.258301,182.086151 1081.606201,181.796829 1084.688965,181.743591 
	C1087.277222,181.632523 1089.130615,181.285370 1090.984009,180.938232 
	C1106.995850,179.274200 1122.975952,176.990158 1139.031006,176.169449 
	C1149.311401,175.643936 1156.762329,182.266144 1160.543457,191.277115 
	C1163.357544,197.983002 1164.331421,205.609512 1165.205078,212.935684 
	C1165.948120,219.167740 1165.378052,225.556396 1165.436401,232.315460 
	C1158.203125,233.345398 1150.925781,233.981186 1143.641113,234.517181 
	C1122.981689,236.037231 1102.318604,237.510040 1081.657959,239.014313 
	C1068.786621,239.951447 1055.898193,240.724380 1043.060669,242.005417 
	C1040.174561,242.293427 1037.469116,244.392715 1034.396484,245.847778 
z"/>
<path fill="#E4E4F4" opacity="1.000000" stroke="none" 
	d="
M1027.064087,301.972168 
	C1027.061279,300.927002 1027.058472,299.881866 1027.352539,298.210419 
	C1028.102661,295.221771 1028.795776,292.876892 1028.969482,290.494141 
	C1029.926270,277.368683 1026.968262,264.038025 1031.048584,251.072342 
	C1031.499023,250.542709 1031.949463,250.013077 1032.574829,249.296661 
	C1032.601929,265.383118 1032.167969,281.660645 1032.410522,297.928040 
	C1032.564331,308.234467 1034.166992,309.621704 1044.826172,312.458923 
	C1047.057739,312.947693 1048.537476,313.356262 1050.011719,313.337372 
	C1065.986572,313.132751 1081.960327,312.856842 1097.934692,312.608612 
	C1120.223511,312.262238 1142.512329,311.922882 1164.801147,311.580505 
	C1164.896606,311.799194 1164.992188,312.017914 1165.050659,312.844238 
	C1164.919678,313.643097 1164.826050,313.834381 1164.357178,314.007568 
	C1157.859985,314.312225 1151.739502,314.878754 1145.616211,314.914001 
	C1123.298096,315.042511 1100.978760,314.940704 1078.660400,315.047913 
	C1072.944824,315.075348 1067.234009,315.647888 1061.516357,315.798706 
	C1053.466431,316.011017 1045.527100,317.687073 1037.322021,315.427216 
	C1032.219360,314.021790 1030.159668,311.342560 1029.082275,306.792328 
	C1028.686157,305.120087 1027.752441,303.575165 1027.064087,301.972168 
z"/>
<path fill="#F9F8FE" opacity="1.000000" stroke="none" 
	d="
M1132.310303,281.294861 
	C1134.741943,272.975189 1137.163086,265.077789 1139.344971,257.114899 
	C1140.237183,253.858643 1141.577759,252.008270 1145.387817,251.941574 
	C1149.097656,251.876633 1150.190186,253.725418 1151.053711,256.760223 
	C1153.902100,266.772339 1156.941772,276.730072 1160.075195,287.271271 
	C1155.766113,287.807312 1151.869507,290.187714 1150.435913,283.787262 
	C1150.207397,282.766815 1146.507202,281.918030 1144.497559,282.076324 
	C1142.565796,282.228516 1139.578247,283.390045 1139.092041,284.807098 
	C1137.575562,289.227539 1134.977173,289.319214 1130.967529,288.036469 
	C1131.395508,285.839142 1131.799561,283.764984 1132.310303,281.294861 
M1144.065552,265.365967 
	C1143.375977,268.311737 1142.686401,271.257507 1141.618896,275.817169 
	C1144.656982,274.643707 1147.435913,273.709595 1147.395508,273.565369 
	C1146.560791,270.585846 1145.405518,267.696136 1144.065552,265.365967 
z"/>
<path fill="#F9F8FE" opacity="1.000000" stroke="none" 
	d="
M1090.076294,284.852478 
	C1085.374878,284.276703 1080.743042,282.898804 1078.795166,289.146515 
	C1078.446777,290.263733 1075.325684,290.516479 1072.848877,291.393555 
	C1072.848877,289.511871 1072.676880,288.680359 1072.875000,287.949127 
	C1075.491333,278.292938 1078.008057,268.603668 1080.978638,259.056091 
	C1081.423828,257.625092 1084.043335,256.062164 1085.679199,256.037567 
	C1087.311523,256.013062 1089.994995,257.511230 1090.453735,258.917267 
	C1093.447266,268.094452 1095.975830,277.423950 1098.604736,286.718292 
	C1098.813965,287.458160 1098.632324,288.308594 1098.632324,289.048767 
	C1093.912842,291.320190 1091.586426,289.332764 1090.076294,284.852478 
M1086.733276,277.741455 
	C1086.733276,274.295746 1086.733276,270.850037 1086.733276,267.404358 
	C1086.166504,267.408203 1085.599731,267.412079 1085.032837,267.415955 
	C1084.412231,269.795868 1083.428101,272.162170 1083.338013,274.561981 
	C1083.298218,275.623657 1085.069458,276.753326 1086.733276,277.741455 
z"/>
<path fill="#F9F8FE" opacity="1.000000" stroke="none" 
	d="
M1117.098511,270.943542 
	C1118.329956,266.382904 1119.746460,262.258636 1120.529419,258.017456 
	C1121.390869,253.350861 1123.960205,252.465607 1128.660278,253.729965 
	C1128.378662,255.337265 1128.239380,256.925323 1127.813599,258.432434 
	C1125.280029,267.400238 1122.548706,276.314636 1120.171143,285.322784 
	C1119.286499,288.674561 1117.292480,289.203918 1114.329590,289.288971 
	C1111.321655,289.375336 1109.812744,288.314606 1109.025635,285.367981 
	C1106.706787,276.687134 1104.036621,268.098694 1101.818237,259.394043 
	C1101.479614,258.065338 1102.376099,255.496765 1103.454956,254.925766 
	C1105.647583,253.765274 1107.995850,254.185471 1108.793701,257.333008 
	C1110.047241,262.278381 1111.412354,267.195557 1112.745972,272.120453 
	C1113.170776,273.688751 1113.645386,275.243530 1115.241577,276.983795 
	C1115.829224,275.098694 1116.416748,273.213562 1117.098511,270.943542 
z"/>
<path fill="#B5B49B" opacity="1.000000" stroke="none" 
	d="
M1164.844727,311.218414 
	C1142.512329,311.922882 1120.223511,312.262238 1097.934692,312.608612 
	C1081.960327,312.856842 1065.986572,313.132751 1050.011719,313.337372 
	C1048.537476,313.356262 1047.057739,312.947693 1045.194580,312.554871 
	C1050.535400,311.684723 1056.250244,310.534271 1061.990967,310.386292 
	C1095.108154,309.532806 1128.231323,308.914337 1161.352783,308.229828 
	C1162.177856,308.212799 1163.006226,308.351868 1164.168701,308.550598 
	C1164.632446,309.407501 1164.760498,310.131897 1164.844727,311.218414 
z"/>
<path fill="#F9F8FE" opacity="1.000000" stroke="none" 
	d="
M1064.177612,257.122681 
	C1065.953369,258.030701 1068.465942,258.999573 1068.477173,259.996765 
	C1068.569336,268.137543 1068.478394,276.305756 1067.847046,284.419250 
	C1067.512207,288.723053 1064.038330,291.571564 1060.009644,291.479553 
	C1057.374146,291.419373 1054.311890,289.268433 1052.379883,287.183624 
	C1051.267090,285.982849 1051.100830,282.119812 1052.135376,281.090668 
	C1054.205566,279.031464 1056.691406,280.257172 1058.194702,282.850952 
	C1058.412720,283.227081 1058.979004,283.401306 1060.427734,284.358337 
	C1061.007080,282.074677 1061.811401,280.252258 1061.873779,278.404816 
	C1062.059326,272.912781 1061.821899,267.405609 1062.042725,261.916138 
	C1062.106812,260.322571 1063.156982,258.768677 1064.177612,257.122681 
z"/>
<path fill="#7366D2" opacity="1.000000" stroke="none" 
	d="
M1172.408325,232.369568 
	C1174.171265,232.206909 1176.294067,232.147568 1178.783203,232.253021 
	C1177.022461,232.436172 1174.895264,232.454544 1172.408325,232.369568 
z"/>
<path fill="#79D1C4" opacity="1.000000" stroke="none" 
	d="
M1177.453857,483.973297 
	C1178.361816,484.643646 1178.896484,485.208679 1179.699585,485.895203 
	C1179.625977,486.738617 1178.967896,487.469757 1178.988647,488.181122 
	C1179.395386,502.151886 1179.881226,516.120300 1179.961670,530.395142 
	C1176.982788,526.632751 1174.168823,526.408142 1169.304077,527.843323 
	C1163.193237,529.646301 1156.173828,531.388672 1150.138306,526.122803 
	C1147.993042,524.251099 1141.158325,527.059326 1140.612915,529.432190 
	C1140.190918,531.268616 1139.362427,534.124878 1138.157227,534.447876 
	C1135.184448,535.244507 1131.508667,536.320251 1129.799072,532.479309 
	C1137.465210,533.399780 1137.638184,533.410583 1138.058716,526.674805 
	C1138.280518,523.120728 1140.113770,522.579956 1142.997681,522.898010 
	C1145.638916,523.189270 1147.270996,522.106384 1147.068359,519.288330 
	C1146.893311,516.855652 1148.159546,513.252075 1144.062378,513.099731 
	C1139.085938,512.914734 1137.728760,510.323700 1138.180054,505.997742 
	C1138.580933,502.153656 1136.801758,500.581451 1133.055786,500.453400 
	C1128.938599,500.312622 1129.602051,503.316162 1129.545044,505.619995 
	C1129.458008,509.139038 1128.616089,511.282654 1124.367920,511.053192 
	C1123.257446,510.993164 1121.512207,513.131287 1120.973511,514.596313 
	C1120.381226,516.207214 1120.844849,518.206299 1120.514893,519.963562 
	C1116.692993,520.445312 1112.977539,520.463135 1109.819824,521.799133 
	C1108.413574,522.394104 1108.187988,525.669434 1107.298828,527.671387 
	C1107.063477,528.201233 1106.354126,528.520508 1105.880249,528.486694 
	C1106.133301,523.584717 1104.086548,517.594666 1112.489014,518.688477 
	C1113.074829,518.764709 1114.803101,515.939636 1114.621460,514.659241 
	C1114.348999,512.738159 1113.000366,509.532593 1111.856323,509.418823 
	C1106.665283,508.902618 1105.523438,506.163452 1106.033691,501.649109 
	C1106.369385,498.680023 1105.133301,497.026703 1101.814575,496.953827 
	C1098.104248,496.872375 1097.721069,499.150269 1097.949585,501.837555 
	C1098.275146,505.668488 1096.816162,507.489258 1092.851196,507.096222 
	C1089.962280,506.809814 1089.070190,508.457825 1089.150024,511.062897 
	C1089.225586,513.533447 1088.643921,516.566895 1092.362183,516.600403 
	C1097.543213,516.647095 1098.291382,519.643616 1097.984497,523.828918 
	C1097.864868,525.459229 1098.227173,527.125000 1098.034424,528.627197 
	C1097.111084,527.015076 1096.732910,525.412842 1095.884277,524.119202 
	C1094.732910,522.364014 1093.464478,519.853149 1091.809448,519.447327 
	C1089.023315,518.764099 1086.350586,520.115845 1085.527466,523.814575 
	C1086.989502,524.561523 1088.317017,525.239868 1089.155762,525.668457 
	C1085.978027,527.123840 1082.491699,528.123291 1079.730347,530.123474 
	C1075.443359,533.228882 1066.969604,533.073730 1063.395020,529.202271 
	C1073.731079,531.488586 1080.114136,528.901855 1083.003052,521.581055 
	C1084.128784,518.728210 1083.585205,516.872070 1080.296753,516.946899 
	C1078.291626,516.992493 1075.928711,517.216980 1074.376709,518.296265 
	C1069.635986,521.592957 1064.779053,521.280762 1062.484985,516.062073 
	C1060.846802,512.335083 1060.325195,507.723785 1060.723267,503.645538 
	C1060.954712,501.275116 1063.646606,497.910736 1065.854858,497.318573 
	C1068.012817,496.739868 1071.029663,498.983276 1073.537354,500.249573 
	C1074.805054,500.889679 1075.653320,502.639893 1076.917603,502.942596 
	C1078.898926,503.416992 1081.072021,503.090179 1083.163940,503.102722 
	C1082.943359,501.078613 1083.217285,498.828979 1082.414917,497.070374 
	C1079.307739,490.260010 1072.083862,486.234406 1065.480225,487.234192 
	C1058.617920,488.273071 1053.579224,493.268799 1052.458374,501.049377 
	C1051.849365,505.276520 1052.274658,509.652679 1052.019043,513.645569 
	C1051.623901,508.277771 1050.837158,503.157410 1051.400024,498.189880 
	C1052.313599,490.124023 1058.457275,484.932434 1066.635742,483.886169 
	C1068.007690,483.710663 1069.239990,482.444977 1070.536865,481.682983 
	C1069.197754,480.798492 1067.888794,479.208496 1066.514404,479.149780 
	C1060.043945,478.873627 1053.554443,479.090546 1047.074219,478.980499 
	C1043.855713,478.925842 1042.313477,480.207031 1041.662720,483.452087 
	C1041.228271,485.618591 1039.702515,487.566223 1038.455444,490.025177 
	C1033.241333,483.521912 1034.420044,479.371124 1040.819092,476.842865 
	C1043.692017,475.707794 1046.259766,473.800903 1049.378418,472.187042 
	C1052.828979,472.205841 1055.867310,472.281860 1059.328613,472.478882 
	C1060.901978,472.681366 1062.052368,472.762848 1063.519531,473.001617 
	C1065.503906,473.221802 1067.171509,473.284698 1069.265625,473.462311 
	C1070.571045,473.627441 1071.449951,473.677887 1072.651367,473.918823 
	C1075.933594,474.296448 1078.893066,474.483551 1082.253540,474.735870 
	C1083.195435,474.801849 1083.736328,474.802612 1084.605225,474.984375 
	C1093.561401,475.898682 1102.189697,476.632019 1111.241455,477.446136 
	C1112.237671,477.571136 1112.810425,477.615387 1113.723145,477.792480 
	C1116.317139,478.047272 1118.571289,478.169220 1121.257812,478.437439 
	C1123.205200,478.675964 1124.720215,478.768127 1126.580322,479.013916 
	C1131.926147,479.558258 1136.926880,479.948975 1142.366333,480.446838 
	C1144.604492,480.665344 1146.404053,480.776611 1148.520752,481.037384 
	C1150.499146,481.240875 1152.160278,481.294861 1154.260376,481.437775 
	C1155.592529,481.576385 1156.485718,481.626099 1157.673584,481.841583 
	C1160.053833,481.853241 1162.139404,481.699127 1164.569336,481.645874 
	C1165.846313,481.821381 1166.778687,481.896027 1167.711182,481.970642 
	C1170.834351,482.603088 1173.957397,483.235535 1177.453857,483.973297 
M1151.476074,521.506531 
	C1151.476074,521.506531 1151.513428,521.494507 1151.476074,521.506531 
z"/>
<path fill="#7366D2" opacity="1.000000" stroke="none" 
	d="
M1167.828857,481.600281 
	C1166.778687,481.896027 1165.846313,481.821381 1164.517212,481.494385 
	C1164.120605,481.242035 1163.932251,480.974335 1164.009277,480.512787 
	C1164.171387,459.604523 1164.254395,439.157837 1164.341675,418.711121 
	C1164.450806,393.114685 1164.563599,367.518280 1164.768188,341.526794 
	C1164.802856,339.785645 1164.744263,338.439514 1164.749268,336.635132 
	C1164.782715,333.097290 1164.752441,330.017639 1164.816284,326.540466 
	C1164.852905,324.788971 1164.795410,323.435089 1164.796143,321.729065 
	C1164.817993,320.904053 1164.781616,320.431122 1164.805176,319.732269 
	C1164.864990,319.506317 1164.760864,319.050537 1164.830078,318.635681 
	C1164.843750,316.822418 1164.788086,315.424072 1164.732544,314.025696 
	C1164.826050,313.834381 1164.919678,313.643097 1165.178467,313.178711 
	C1166.466675,313.914825 1167.725952,314.815704 1168.653564,315.980652 
	C1169.091919,316.531311 1168.977905,317.588043 1168.974365,318.414856 
	C1168.828369,352.067932 1168.653198,385.720856 1168.511597,419.373962 
	C1168.432373,438.182648 1168.416504,456.991547 1168.338257,475.800262 
	C1168.330688,477.610657 1168.082886,479.420074 1167.828857,481.600281 
z"/>
<path fill="#F9F8FE" opacity="1.000000" stroke="none" 
	d="
M1066.549561,183.513626 
	C1064.247437,188.377319 1060.453613,187.602951 1056.210083,185.285461 
	C1059.369873,184.472519 1062.743286,183.960037 1066.549561,183.513626 
z"/>
<path fill="#EBEBF8" opacity="1.000000" stroke="none" 
	d="
M1090.595215,180.870895 
	C1089.130615,181.285370 1087.277222,181.632523 1085.130371,181.745575 
	C1086.626709,181.275513 1088.416504,181.039536 1090.595215,180.870895 
z"/>
<path fill="#EBEBF8" opacity="1.000000" stroke="none" 
	d="
M1076.597656,182.310608 
	C1076.310425,182.531586 1075.710449,182.687698 1074.792847,182.821869 
	C1075.078369,182.615219 1075.681763,182.430481 1076.597656,182.310608 
z"/>
<path fill="#E4E4F4" opacity="1.000000" stroke="none" 
	d="
M1058.905640,472.357910 
	C1055.867310,472.281860 1052.828979,472.205841 1048.992188,472.080750 
	C1047.128418,472.009644 1046.063354,471.987640 1044.549072,471.859375 
	C1032.395142,471.034821 1028.468750,473.473877 1028.256470,482.841766 
	C1027.917236,497.808624 1028.040405,512.791260 1028.268677,527.762634 
	C1028.344360,532.720947 1030.693237,536.872559 1035.728882,538.544312 
	C1039.974365,539.953735 1044.323486,541.269287 1048.731079,541.935486 
	C1072.905151,545.589539 1097.101807,549.098083 1121.310181,552.519470 
	C1135.463989,554.519897 1149.653931,556.264709 1163.827637,558.124451 
	C1163.835815,558.305725 1163.844116,558.487000 1163.793335,559.357788 
	C1163.567261,578.474731 1163.391846,596.902161 1163.236572,615.329651 
	C1163.161011,624.305786 1161.403687,632.793823 1156.142212,640.291138 
	C1148.677124,648.781738 1139.253540,649.926941 1128.837646,647.725464 
	C1082.017334,637.829651 1035.171753,628.053650 988.370056,618.070740 
	C975.726624,615.373901 968.587952,606.686646 965.204834,594.252380 
	C966.703857,591.702881 968.481567,589.784058 968.875427,587.614075 
	C969.494507,584.203369 970.815430,583.226135 974.225037,583.705261 
	C980.852295,584.636414 987.538879,585.145447 994.316223,585.841187 
	C992.998230,579.620850 992.998230,579.620850 997.288391,577.458618 
	C997.808777,587.179504 997.822021,587.107605 1007.156494,588.826904 
	C1037.630127,594.439697 1068.090454,600.124878 1098.562744,605.744873 
	C1104.550049,606.849060 1110.567871,607.786438 1116.940796,608.863159 
	C1116.940796,598.703491 1116.940796,589.438721 1116.874756,579.817749 
	C1113.899414,577.976257 1111.132812,575.955505 1108.046875,575.133911 
	C1103.649048,573.962952 1098.734131,574.402222 1094.569092,572.788269 
	C1090.805176,571.329895 1088.718506,571.582397 1086.599976,575.090820 
	C1085.005981,574.861511 1083.788208,574.594727 1082.721680,574.055786 
	C1082.255981,568.208618 1077.917236,569.765625 1074.599609,569.565247 
	C1072.651611,569.447510 1070.595581,570.150208 1068.731567,569.773499 
	C1057.266235,567.456787 1045.842041,564.937561 1034.438599,562.493042 
	C1034.438599,560.764404 1034.381104,560.107788 1034.447388,559.463928 
	C1035.191162,552.238586 1034.462524,546.054138 1027.544189,541.202026 
	C1024.595703,539.134155 1022.613037,533.915161 1022.430664,530.023254 
	C1021.957825,519.933167 1023.080017,509.778778 1022.904175,499.661530 
	C1022.725830,489.405060 1022.609497,479.371674 1030.428711,471.048859 
	C1032.148438,470.804962 1033.461426,470.345856 1034.735474,470.436371 
	C1042.796997,471.009094 1050.849854,471.703613 1058.905640,472.357910 
z"/>
<path fill="#EBEBF8" opacity="1.000000" stroke="none" 
	d="
M1030.004150,471.087830 
	C1022.609497,479.371674 1022.725830,489.405060 1022.904175,499.661530 
	C1023.080017,509.778778 1021.957825,519.933167 1022.430664,530.023254 
	C1022.613037,533.915161 1024.595703,539.134155 1027.544189,541.202026 
	C1034.462524,546.054138 1035.191162,552.238586 1034.447388,559.463928 
	C1034.381104,560.107788 1034.438599,560.764404 1034.438599,562.493042 
	C1045.842041,564.937561 1057.266235,567.456787 1068.731567,569.773499 
	C1070.595581,570.150208 1072.651611,569.447510 1074.599609,569.565247 
	C1077.917236,569.765625 1082.255981,568.208618 1082.447021,574.092896 
	C1081.676270,574.283752 1081.331909,574.165344 1080.826416,573.790283 
	C1079.241333,573.422852 1077.817505,573.312195 1076.075195,573.264526 
	C1074.365845,572.937134 1072.974854,572.546692 1071.065918,572.144958 
	C1070.202759,572.129639 1069.857544,572.125610 1069.247559,572.163513 
	C1068.642456,572.107849 1068.302002,572.010132 1067.637817,571.753906 
	C1066.360229,571.438965 1065.406372,571.282593 1064.094727,571.202515 
	C1062.785156,571.102600 1061.833496,570.926331 1060.571045,570.605835 
	C1059.120850,570.332581 1057.981323,570.203613 1056.419678,570.112366 
	C1046.046143,568.568420 1036.100830,566.946655 1026.141479,565.416443 
	C1016.624084,563.954224 1007.091980,562.587402 997.214478,561.317078 
	C994.090027,564.077209 994.199524,566.586304 997.253906,569.422363 
	C997.291504,572.250305 997.231812,574.640015 997.172119,577.029663 
	C992.998230,579.620850 992.998230,579.620850 994.316223,585.841187 
	C987.538879,585.145447 980.852295,584.636414 974.225037,583.705261 
	C970.815430,583.226135 969.494507,584.203369 968.875427,587.614075 
	C968.481567,589.784058 966.703857,591.702881 965.216980,593.877319 
	C964.484253,592.923462 964.081177,591.826599 963.896484,590.017090 
	C963.764343,587.880188 963.413879,586.455933 963.063477,585.031738 
	C962.934998,584.412170 962.806519,583.792664 962.816162,582.478638 
	C963.106079,580.804565 962.938354,579.211792 963.459412,578.940186 
	C968.546875,576.288086 966.545959,572.059326 966.234131,568.082336 
	C966.041931,565.630798 966.521240,563.134460 966.541992,560.656982 
	C966.594849,554.340271 966.559570,548.022888 966.559570,541.705750 
	C965.992126,541.700012 965.424744,541.694275 964.857300,541.688538 
	C964.857300,547.650513 964.857300,553.612427 964.857300,559.574402 
	C964.433960,559.578613 964.010620,559.582825 963.587341,559.587036 
	C963.121094,558.736023 962.654846,557.885071 962.188599,557.034119 
	C962.023315,537.102539 961.857971,517.171021 961.778198,496.380157 
	C961.769226,492.644409 961.674683,489.767975 961.580078,486.891510 
	C961.473022,466.753632 961.366028,446.615753 961.758179,426.012299 
	C981.367798,426.701202 1000.473755,427.940277 1019.590393,428.981293 
	C1033.038696,429.713623 1046.501709,430.176575 1060.015137,431.136108 
	C1061.274048,433.441345 1062.414185,435.412445 1063.691284,437.290436 
	C1066.517090,441.446167 1069.723389,445.609253 1067.037842,450.953552 
	C1063.845825,457.305603 1055.908203,461.213409 1048.870483,460.285889 
	C1041.568726,459.323639 1032.405029,464.570343 1030.004150,471.087830 
M964.459595,581.036682 
	C964.459595,581.036682 964.463379,580.990601 964.459595,581.036682 
z"/>
<path fill="#F2CC69" opacity="1.000000" stroke="none" 
	d="
M983.021729,359.258881 
	C984.510071,359.224152 985.998352,359.189392 987.788452,359.686646 
	C985.907471,363.985657 988.559143,370.538818 980.098999,371.742889 
	C981.624451,374.226013 982.721436,376.323059 984.124329,378.190277 
	C985.130432,379.529297 987.594177,380.604614 987.547607,381.719849 
	C987.465210,383.692810 985.966553,385.606598 985.348633,386.928894 
	C983.625549,384.221558 982.688416,380.926178 980.944946,380.422668 
	C978.091919,379.598602 974.578979,380.117004 971.600647,380.967133 
	C969.208313,381.649963 968.587402,383.923370 970.492798,386.448181 
	C969.737122,387.885132 969.054077,388.998016 968.034424,390.227844 
	C966.085266,393.017487 964.472839,395.690216 962.860352,398.362915 
	C963.305054,398.664520 963.749817,398.966125 964.194519,399.267731 
	C966.242432,398.446686 968.290283,397.625610 970.583740,397.003326 
	C971.922729,398.637054 973.016052,400.072052 974.104736,401.883362 
	C973.771973,409.336334 980.560608,403.542145 981.267273,407.163666 
	C982.300537,410.375183 983.333862,413.586670 984.731812,416.816864 
	C986.712219,415.882568 988.327942,414.929565 990.291809,413.916138 
	C993.781311,412.069183 997.933350,411.358154 995.139221,405.656494 
	C993.869141,403.064789 997.313110,402.981384 999.126038,403.740234 
	C1003.976746,405.770691 1008.149597,405.243347 1011.865173,401.361359 
	C1012.444397,400.756256 1013.585693,400.689209 1015.218933,400.103790 
	C1015.110901,407.959808 1019.635071,409.750671 1026.046021,409.059845 
	C1027.005981,408.956390 1028.441040,408.931702 1028.912598,409.494141 
	C1030.015503,410.809906 1031.147217,412.435883 1031.379395,414.062927 
	C1031.668579,416.089966 1031.064941,418.244354 1030.916016,419.677185 
	C1029.173584,422.012085 1027.598755,424.122223 1025.581421,426.235840 
	C1023.076477,426.119415 1021.014160,425.999542 1018.722656,425.639313 
	C1016.595337,425.338470 1014.697205,425.277985 1012.359192,425.246704 
	C1009.255615,425.146973 1006.591797,425.018066 1003.565857,424.728455 
	C999.707214,424.406281 996.210754,424.244812 992.272461,424.136597 
	C987.717346,423.962952 983.605591,423.704132 979.490540,423.516632 
	C973.091980,423.225067 966.691223,422.982056 960.291382,422.718506 
	C959.803040,422.718628 959.314636,422.718719 958.460449,422.683472 
	C956.380432,422.171478 954.691589,421.461823 952.946228,421.272644 
	C950.310913,420.987000 947.632629,421.128143 944.978943,420.976471 
	C933.734558,420.333771 931.810913,418.320251 931.612427,407.091949 
	C931.389343,394.471680 931.124146,381.851868 930.976929,369.230713 
	C930.930298,365.234283 931.823486,361.587952 936.636475,360.263458 
	C940.087952,363.682037 942.548157,359.929810 945.306152,359.832733 
	C949.508728,359.780426 953.711304,359.728119 958.598267,360.013550 
	C961.646301,361.231506 963.949219,362.537506 966.388794,362.884949 
	C969.490967,363.326752 972.703735,362.991913 975.868835,362.991913 
	C972.876648,369.095001 967.372498,365.500336 962.648376,368.342865 
	C967.058228,368.860596 970.493896,369.263947 974.963806,369.788757 
	C971.264343,372.363831 968.761108,374.106262 966.257874,375.848694 
	C966.665955,376.560944 967.074036,377.273193 967.482117,377.985474 
	C971.211853,376.290436 976.155884,375.530151 978.363037,372.663025 
	C981.100525,369.106873 981.571594,363.806061 983.021729,359.258881 
M934.908936,365.932495 
	C935.022644,367.871552 935.136414,369.810638 935.316833,372.886780 
	C938.459900,369.436981 939.146057,367.452972 934.908936,365.932495 
M961.620544,380.294464 
	C962.330688,380.430695 963.040771,380.566925 963.750916,380.703156 
	C963.801758,380.126678 963.852600,379.550232 963.903381,378.973755 
	C963.162659,379.243835 962.421875,379.513885 961.620544,380.294464 
z"/>
<path fill="#B5B49B" opacity="1.000000" stroke="none" 
	d="
M1018.951843,425.879700 
	C1021.014160,425.999542 1023.076477,426.119415 1025.989258,426.301392 
	C1034.397095,426.945404 1041.960449,427.988312 1049.509277,427.892181 
	C1052.725342,427.851227 1055.911011,425.428955 1059.444458,423.991760 
	C1064.444946,421.861877 1064.791016,417.580841 1064.840088,413.446472 
	C1064.997314,400.229492 1064.983154,387.009369 1064.876709,373.791748 
	C1064.863281,372.119904 1063.907227,370.455627 1063.380371,368.421387 
	C1062.436035,365.815033 1061.499268,363.575104 1060.562500,361.335144 
	C1065.777344,363.600647 1068.008301,367.989716 1068.005981,373.256348 
	C1067.998413,390.182678 1067.680542,407.108826 1067.300293,424.643860 
	C1066.963379,425.912415 1066.808472,426.572174 1066.321533,427.341736 
	C1064.806274,428.569977 1063.623047,429.688385 1062.137207,430.717407 
	C1061.209106,430.671997 1060.583618,430.715912 1059.958252,430.759827 
	C1046.501709,430.176575 1033.038696,429.713623 1019.590393,428.981293 
	C1000.473755,427.940277 981.367798,426.701202 961.827637,425.515503 
	C961.136475,424.734131 960.874939,423.983978 960.452393,422.976135 
	C966.691223,422.982056 973.091980,423.225067 979.490540,423.516632 
	C983.605591,423.704132 987.717346,423.962952 992.667725,424.310364 
	C996.979309,424.583649 1000.453674,424.736420 1003.928040,424.889160 
	C1006.591797,425.018066 1009.255615,425.146973 1012.722351,425.400085 
	C1015.334167,425.642792 1017.143005,425.761261 1018.951843,425.879700 
z"/>
<path fill="#7366D2" opacity="1.000000" stroke="none" 
	d="
M1156.387695,640.347656 
	C1161.403687,632.793823 1163.161011,624.305786 1163.236572,615.329651 
	C1163.391846,596.902161 1163.567261,578.474731 1163.846191,559.624756 
	C1165.184448,560.921265 1167.485840,562.648132 1167.473145,564.357910 
	C1167.319580,585.090515 1167.251709,605.844299 1166.098755,626.533386 
	C1165.833496,631.292175 1161.539062,635.826355 1158.801758,640.669312 
	C1157.880859,640.717957 1157.257080,640.561096 1156.387695,640.347656 
z"/>
<path fill="#E4E4F4" opacity="1.000000" stroke="none" 
	d="
M962.110046,557.493958 
	C962.654846,557.885071 963.121094,558.736023 963.587341,559.587036 
	C964.010620,559.582825 964.433960,559.578613 964.857300,559.574402 
	C964.857300,553.612427 964.857300,547.650513 964.857300,541.688538 
	C965.424744,541.694275 965.992126,541.700012 966.559570,541.705750 
	C966.559570,548.022888 966.594849,554.340271 966.541992,560.656982 
	C966.521240,563.134460 966.041931,565.630798 966.234131,568.082336 
	C966.545959,572.059326 968.546875,576.288086 963.459412,578.940186 
	C962.938354,579.211792 963.106079,580.804565 962.932007,582.180054 
	C962.617126,574.368530 962.324341,566.161133 962.110046,557.493958 
M963.531189,572.007324 
	C963.531189,572.007324 963.488892,572.020569 963.531189,572.007324 
z"/>
<path fill="#B5B49B" opacity="1.000000" stroke="none" 
	d="
M961.472473,487.160583 
	C961.674683,489.767975 961.769226,492.644409 961.759644,495.861816 
	C961.558655,493.278381 961.461731,490.354034 961.472473,487.160583 
z"/>
<path fill="#E4E4F4" opacity="1.000000" stroke="none" 
	d="
M963.012085,585.402344 
	C963.413879,586.455933 963.764343,587.880188 963.932983,589.664978 
	C963.487671,588.608032 963.224243,587.190552 963.012085,585.402344 
z"/>
<path fill="#6FCFBF" opacity="1.000000" stroke="none" 
	d="
M1044.998169,471.965637 
	C1046.063354,471.987640 1047.128418,472.009644 1048.579834,472.137939 
	C1046.259766,473.800903 1043.692017,475.707794 1040.819092,476.842865 
	C1034.420044,479.371124 1033.241333,483.521912 1038.455444,490.025177 
	C1039.702515,487.566223 1041.228271,485.618591 1041.662720,483.452087 
	C1042.313477,480.207031 1043.855713,478.925842 1047.074219,478.980499 
	C1053.554443,479.090546 1060.043945,478.873627 1066.514404,479.149780 
	C1067.888794,479.208496 1069.197754,480.798492 1070.536865,481.682983 
	C1069.239990,482.444977 1068.007690,483.710663 1066.635742,483.886169 
	C1058.457275,484.932434 1052.313599,490.124023 1051.400024,498.189880 
	C1050.837158,503.157410 1051.623901,508.277771 1052.121338,513.831787 
	C1052.437866,514.334106 1052.520020,514.751099 1052.323242,515.046387 
	C1051.361084,519.982544 1052.132690,523.739014 1057.717041,524.864746 
	C1058.040283,525.044250 1058.148315,525.213257 1058.256104,525.802124 
	C1059.646851,527.069580 1060.965576,527.963318 1062.471191,528.908203 
	C1062.657837,528.959351 1062.984741,529.167175 1062.984741,529.167175 
	C1066.969604,533.073730 1075.443359,533.228882 1079.730347,530.123474 
	C1082.491699,528.123291 1085.978027,527.123840 1089.155762,525.668457 
	C1088.317017,525.239868 1086.989502,524.561523 1085.527466,523.814575 
	C1086.350586,520.115845 1089.023315,518.764099 1091.809448,519.447327 
	C1093.464478,519.853149 1094.732910,522.364014 1095.884277,524.119202 
	C1096.732910,525.412842 1097.111084,527.015076 1098.191650,528.636719 
	C1098.684570,528.793518 1098.973022,528.921204 1099.151611,529.042236 
	C1099.872925,529.148132 1100.415649,529.132996 1101.366211,529.081238 
	C1103.136963,529.008606 1104.499634,528.972534 1105.862427,528.936462 
	C1106.354126,528.520508 1107.063477,528.201233 1107.298828,527.671387 
	C1108.187988,525.669434 1108.413574,522.394104 1109.819824,521.799133 
	C1112.977539,520.463135 1116.692993,520.445312 1120.562256,519.964966 
	C1120.943237,520.039124 1120.942383,520.133728 1121.080078,520.446289 
	C1123.833130,523.839233 1126.448608,526.919617 1129.147583,530.292725 
	C1129.281860,531.187439 1129.332764,531.789612 1129.383545,532.391724 
	C1131.508667,536.320251 1135.184448,535.244507 1138.157227,534.447876 
	C1139.362427,534.124878 1140.190918,531.268616 1140.612915,529.432190 
	C1141.158325,527.059326 1147.993042,524.251099 1150.138306,526.122803 
	C1156.173828,531.388672 1163.193237,529.646301 1169.304077,527.843323 
	C1174.168823,526.408142 1176.982788,526.632751 1179.883301,530.859924 
	C1180.172363,536.815247 1180.423096,542.632019 1179.993896,548.398193 
	C1179.823120,550.694763 1178.148682,552.879456 1176.977051,555.425049 
	C1173.111816,556.148193 1169.428345,556.561462 1165.129272,556.718689 
	C1160.256592,555.314575 1156.053467,553.859192 1151.728027,553.099854 
	C1146.848633,552.243225 1141.829102,552.210999 1136.924194,551.466797 
	C1128.083740,550.125610 1119.312256,548.316284 1110.459961,547.072266 
	C1094.964478,544.894653 1079.414795,543.102234 1063.917603,540.936340 
	C1056.372192,539.881714 1048.921997,538.145081 1041.376465,537.092163 
	C1034.658813,536.154846 1030.204712,532.693481 1030.208862,525.985107 
	C1030.218018,511.205841 1030.942261,496.426880 1031.381470,481.648010 
	C1031.541992,476.246063 1034.705811,474.178162 1039.730835,473.777374 
	C1041.523315,473.634369 1043.244507,472.595551 1044.998169,471.965637 
M1037.008423,512.280518 
	C1037.098267,514.302185 1037.188232,516.323914 1037.278198,518.345581 
	C1037.670288,518.318726 1038.062500,518.291809 1038.454590,518.264954 
	C1038.454590,511.754181 1038.454590,505.243408 1038.454590,498.732635 
	C1037.972656,498.724792 1037.490601,498.716980 1037.008667,498.709137 
	C1037.008667,502.923035 1037.008667,507.136963 1037.008423,512.280518 
M1056.171387,483.908844 
	C1057.089233,483.487244 1058.007080,483.065643 1058.924927,482.644012 
	C1058.835815,482.183014 1058.746826,481.722046 1058.657715,481.261047 
	C1056.509766,481.359711 1054.361816,481.458374 1052.213745,481.557068 
	C1052.173218,482.087219 1052.132690,482.617371 1052.092163,483.147522 
	C1053.216675,483.413696 1054.341064,483.679840 1056.171387,483.908844 
M1048.095947,490.493347 
	C1047.694336,489.576630 1047.292725,488.659882 1046.891235,487.743164 
	C1046.342529,488.625488 1045.793823,489.507812 1045.244995,490.390137 
	C1046.095215,490.597168 1046.945435,490.804230 1048.095947,490.493347 
M1046.211304,508.449707 
	C1046.357544,507.150848 1046.503662,505.851990 1046.649902,504.553162 
	C1046.146118,504.581421 1045.642334,504.609711 1045.138550,504.638000 
	C1045.333740,505.898376 1045.528931,507.158783 1046.211304,508.449707 
z"/>
<path fill="#79D1C4" opacity="1.000000" stroke="none" 
	d="
M1044.549072,471.859375 
	C1043.244507,472.595551 1041.523315,473.634369 1039.730835,473.777374 
	C1034.705811,474.178162 1031.541992,476.246063 1031.381470,481.648010 
	C1030.942261,496.426880 1030.218018,511.205841 1030.208862,525.985107 
	C1030.204712,532.693481 1034.658813,536.154846 1041.376465,537.092163 
	C1048.921997,538.145081 1056.372192,539.881714 1063.917603,540.936340 
	C1079.414795,543.102234 1094.964478,544.894653 1110.459961,547.072266 
	C1119.312256,548.316284 1128.083740,550.125610 1136.924194,551.466797 
	C1141.829102,552.210999 1146.848633,552.243225 1151.728027,553.099854 
	C1156.053467,553.859192 1160.256592,555.314575 1164.746582,556.727234 
	C1164.760986,557.283752 1164.542725,557.575745 1164.075928,557.996094 
	C1149.653931,556.264709 1135.463989,554.519897 1121.310181,552.519470 
	C1097.101807,549.098083 1072.905151,545.589539 1048.731079,541.935486 
	C1044.323486,541.269287 1039.974365,539.953735 1035.728882,538.544312 
	C1030.693237,536.872559 1028.344360,532.720947 1028.268677,527.762634 
	C1028.040405,512.791260 1027.917236,497.808624 1028.256470,482.841766 
	C1028.468750,473.473877 1032.395142,471.034821 1044.549072,471.859375 
z"/>
<path fill="#F4CF74" opacity="1.000000" stroke="none" 
	d="
M982.559570,359.165039 
	C981.571594,363.806061 981.100525,369.106873 978.363037,372.663025 
	C976.155884,375.530151 971.211853,376.290436 967.482117,377.985474 
	C967.074036,377.273193 966.665955,376.560944 966.257874,375.848694 
	C968.761108,374.106262 971.264343,372.363831 974.963806,369.788757 
	C970.493896,369.263947 967.058228,368.860596 962.648376,368.342865 
	C967.372498,365.500336 972.876648,369.095001 975.868835,362.991913 
	C972.703735,362.991913 969.490967,363.326752 966.388794,362.884949 
	C963.949219,362.537506 961.646301,361.231506 959.048523,360.027802 
	C959.400024,359.467194 959.985718,359.230072 960.857422,358.861786 
	C968.128174,358.844147 975.112793,358.957672 982.559570,359.165039 
z"/>
<path fill="#F4CF74" opacity="1.000000" stroke="none" 
	d="
M944.954224,359.687195 
	C942.548157,359.929810 940.087952,363.682037 936.995605,360.218597 
	C939.486145,359.802399 942.044250,359.672028 944.954224,359.687195 
z"/>
<path fill="#F4F5FE" opacity="1.000000" stroke="none" 
	d="
M1060.015137,431.136139 
	C1060.583618,430.715912 1061.209106,430.671997 1062.548584,430.709167 
	C1064.393066,429.604126 1065.523315,428.418030 1066.653564,427.231934 
	C1066.808472,426.572174 1066.963379,425.912415 1067.307861,425.077820 
	C1071.449829,425.356323 1074.387207,424.136139 1075.592285,420.022400 
	C1077.161499,414.666138 1079.182251,409.396881 1080.218018,403.940094 
	C1081.827148,395.461792 1083.474854,386.884491 1083.810303,378.298523 
	C1084.203003,368.246094 1080.494629,359.495148 1071.784180,353.477570 
	C1068.523926,351.225342 1065.631714,348.293762 1062.127197,346.582062 
	C1058.503784,344.812225 1054.402344,343.538696 1050.400024,343.133545 
	C1043.291382,342.413849 1038.375366,337.934967 1038.032104,330.723511 
	C1037.952881,329.060272 1037.974854,327.390778 1037.992920,325.724640 
	C1038.033936,321.953522 1037.025635,319.242798 1033.024658,317.501404 
	C1026.807861,314.795532 1024.033203,307.571075 1026.792725,302.218567 
	C1027.752441,303.575165 1028.686157,305.120087 1029.082275,306.792328 
	C1030.159668,311.342560 1032.219360,314.021790 1037.322021,315.427216 
	C1045.527100,317.687073 1053.466431,316.011017 1061.516357,315.798706 
	C1067.234009,315.647888 1072.944824,315.075348 1078.660400,315.047913 
	C1100.978760,314.940704 1123.298096,315.042511 1145.616211,314.914001 
	C1151.739502,314.878754 1157.859985,314.312225 1164.357178,314.007568 
	C1164.788086,315.424072 1164.843750,316.822418 1164.762939,318.739563 
	C1164.548462,319.511536 1164.588013,319.744843 1164.745361,319.958221 
	C1164.781616,320.431122 1164.817993,320.904053 1164.656982,322.013092 
	C1164.547119,324.078827 1164.634766,325.508423 1164.722168,326.938019 
	C1164.752441,330.017639 1164.782715,333.097290 1164.614014,336.918243 
	C1164.501587,339.080322 1164.588257,340.501099 1164.674805,341.921844 
	C1164.563599,367.518280 1164.450806,393.114685 1164.341675,418.711121 
	C1164.254395,439.157837 1164.171387,459.604523 1163.617188,480.523071 
	C1161.224854,481.221863 1159.301880,481.448822 1157.378784,481.675812 
	C1156.485718,481.626099 1155.592529,481.576385 1154.067627,481.233032 
	C1151.691650,480.922180 1149.947510,480.905029 1148.203491,480.887878 
	C1146.404053,480.776611 1144.604492,480.665344 1142.119263,480.234619 
	C1136.367432,479.563538 1131.301392,479.211914 1126.235352,478.860291 
	C1124.720215,478.768127 1123.205200,478.675964 1121.045410,478.231262 
	C1118.061523,477.805725 1115.722412,477.732697 1113.383301,477.659668 
	C1112.810425,477.615387 1112.237671,477.571136 1111.016968,477.224487 
	C1101.671875,476.215881 1092.974609,475.509644 1084.277344,474.803406 
	C1083.736328,474.802612 1083.195435,474.801849 1082.046021,474.474243 
	C1078.401367,474.007721 1075.365112,473.868011 1072.328857,473.728302 
	C1071.449951,473.677887 1070.571045,473.627441 1069.070312,473.259644 
	C1066.700073,472.909607 1064.951416,472.876953 1063.202881,472.844360 
	C1062.052368,472.762848 1060.901978,472.681366 1059.328613,472.478882 
	C1050.849854,471.703613 1042.796997,471.009094 1034.735474,470.436371 
	C1033.461426,470.345856 1032.148438,470.804962 1030.428711,471.048859 
	C1032.405029,464.570343 1041.568726,459.323639 1048.870483,460.285889 
	C1055.908203,461.213409 1063.845825,457.305603 1067.037842,450.953552 
	C1069.723389,445.609253 1066.517090,441.446167 1063.691284,437.290436 
	C1062.414185,435.412445 1061.274048,433.441345 1060.015137,431.136139 
z"/>
<path fill="#F4CF74" opacity="1.000000" stroke="none" 
	d="
M1059.899414,361.138794 
	C1061.499268,363.575104 1062.436035,365.815033 1062.977539,368.549835 
	C1061.725342,370.659271 1060.285767,372.219208 1060.128174,373.899353 
	C1059.758057,377.846771 1060.065308,381.852997 1059.983154,385.833008 
	C1059.720337,398.585541 1059.405273,411.336975 1059.110474,424.088837 
	C1055.911011,425.428955 1052.725342,427.851227 1049.509277,427.892181 
	C1041.960449,427.988312 1034.397095,426.945404 1026.431885,426.297913 
	C1027.598755,424.122223 1029.173584,422.012085 1030.916016,419.677185 
	C1031.064941,418.244354 1031.668579,416.089966 1031.379395,414.062927 
	C1031.147217,412.435883 1030.015503,410.809906 1028.912598,409.494141 
	C1028.441040,408.931702 1027.005981,408.956390 1026.046021,409.059845 
	C1019.635071,409.750671 1015.110901,407.959808 1015.218933,400.103790 
	C1013.585693,400.689209 1012.444397,400.756256 1011.865173,401.361359 
	C1008.149597,405.243347 1003.976746,405.770691 999.126038,403.740234 
	C997.313110,402.981384 993.869141,403.064789 995.139221,405.656494 
	C997.933350,411.358154 993.781311,412.069183 990.261963,413.508606 
	C991.159973,406.126617 992.453125,399.094849 993.707397,392.056122 
	C994.960938,385.021362 996.333069,378.000854 997.285156,370.924561 
	C997.496216,369.355927 996.163940,367.579590 995.542236,365.898865 
	C994.197205,367.270813 992.835815,368.627472 991.525330,370.031708 
	C991.333923,370.236877 991.381897,370.668335 991.325500,370.996216 
	C989.745789,380.175262 988.058777,389.337585 986.626160,398.539520 
	C985.683228,404.596191 985.107361,410.709961 984.367126,416.798157 
	C983.333862,413.586670 982.300537,410.375183 981.267273,407.163666 
	C980.560608,403.542145 973.771973,409.336334 974.497559,401.885712 
	C976.907959,401.340118 978.920959,401.168488 981.278198,400.910339 
	C984.390930,397.915588 984.027344,393.596649 979.538818,388.635681 
	C979.260925,391.932800 979.078125,394.102722 978.578003,396.093323 
	C975.453186,393.287811 975.340759,390.818085 977.993347,387.778412 
	C979.055542,386.561218 978.839966,384.229065 979.205933,382.404388 
	C977.112976,382.796783 974.948853,382.983002 972.957703,383.670441 
	C971.992920,384.003540 971.352600,385.276581 970.565430,386.124084 
	C968.587402,383.923370 969.208313,381.649963 971.600647,380.967133 
	C974.578979,380.117004 978.091919,379.598602 980.944946,380.422668 
	C982.688416,380.926178 983.625549,384.221558 985.348633,386.928894 
	C985.966553,385.606598 987.465210,383.692810 987.547607,381.719849 
	C987.594177,380.604614 985.130432,379.529297 984.124329,378.190277 
	C982.721436,376.323059 981.624451,374.226013 980.098999,371.742889 
	C988.559143,370.538818 985.907471,363.985657 988.153076,359.767181 
	C1002.763672,359.355957 1017.311768,359.352570 1031.859131,359.455109 
	C1038.970459,359.505249 1046.080566,359.752563 1053.875732,360.115356 
	C1055.681152,360.383240 1056.802002,360.446381 1057.922852,360.509491 
	C1058.360718,360.653809 1058.798462,360.798126 1059.899414,361.138794 
M1002.635559,402.703857 
	C1009.087646,404.541595 1010.276062,398.849396 1012.820923,395.373779 
	C1015.791504,391.316833 1012.048096,388.678741 1010.201904,385.735260 
	C1008.124512,382.423187 1005.182617,382.641083 1000.765564,384.081451 
	C1007.410217,390.019806 1005.422546,396.146820 1002.635559,402.703857 
z"/>
<path fill="#F4F5FE" opacity="1.000000" stroke="none" 
	d="
M1030.721680,251.207428 
	C1026.968262,264.038025 1029.926270,277.368683 1028.969482,290.494141 
	C1028.795776,292.876892 1028.102661,295.221771 1027.348633,297.818542 
	C1023.772095,293.927643 1026.916992,289.765869 1026.953857,285.619232 
	C1027.032227,276.791229 1026.741333,267.950043 1027.161865,259.140991 
	C1027.288086,256.496094 1029.265503,253.939529 1030.721680,251.207428 
z"/>
<path fill="#B5B49B" opacity="1.000000" stroke="none" 
	d="
M1057.840820,360.365112 
	C1056.802002,360.446381 1055.681152,360.383240 1054.419922,360.194702 
	C1055.439331,360.119751 1056.599121,360.170258 1057.840820,360.365112 
z"/>
<path fill="#F088B7" opacity="1.000000" stroke="none" 
	d="
M1144.189697,265.077301 
	C1145.405518,267.696136 1146.560791,270.585846 1147.395508,273.565369 
	C1147.435913,273.709595 1144.656982,274.643707 1141.618896,275.817169 
	C1142.686401,271.257507 1143.375977,268.311737 1144.189697,265.077301 
z"/>
<path fill="#F088B7" opacity="1.000000" stroke="none" 
	d="
M1086.375977,277.796814 
	C1085.069458,276.753326 1083.298218,275.623657 1083.338013,274.561981 
	C1083.428101,272.162170 1084.412231,269.795868 1085.032837,267.415955 
	C1085.599731,267.412079 1086.166504,267.408203 1086.733276,267.404358 
	C1086.733276,270.850037 1086.733276,274.295746 1086.375977,277.796814 
z"/>
<path fill="#EBEBF8" opacity="1.000000" stroke="none" 
	d="
M1063.395020,529.202271 
	C1062.984741,529.167175 1062.657837,528.959351 1062.271240,528.640137 
	C1060.651245,527.356689 1059.417847,526.392517 1058.184326,525.428345 
	C1058.148315,525.213257 1058.040283,525.044250 1057.569824,524.529663 
	C1055.692993,521.009033 1054.106567,517.880066 1052.520020,514.751099 
	C1052.520020,514.751099 1052.437866,514.334106 1052.335571,514.147827 
	C1052.274658,509.652679 1051.849365,505.276520 1052.458374,501.049377 
	C1053.579224,493.268799 1058.617920,488.273071 1065.480225,487.234192 
	C1072.083862,486.234406 1079.307739,490.260010 1082.414917,497.070374 
	C1083.217285,498.828979 1082.943359,501.078613 1083.163940,503.102722 
	C1081.072021,503.090179 1078.898926,503.416992 1076.917603,502.942596 
	C1075.653320,502.639893 1074.805054,500.889679 1073.537354,500.249573 
	C1071.029663,498.983276 1068.012817,496.739868 1065.854858,497.318573 
	C1063.646606,497.910736 1060.954712,501.275116 1060.723267,503.645538 
	C1060.325195,507.723785 1060.846802,512.335083 1062.484985,516.062073 
	C1064.779053,521.280762 1069.635986,521.592957 1074.376709,518.296265 
	C1075.928711,517.216980 1078.291626,516.992493 1080.296753,516.946899 
	C1083.585205,516.872070 1084.128784,518.728210 1083.003052,521.581055 
	C1080.114136,528.901855 1073.731079,531.488586 1063.395020,529.202271 
z"/>
<path fill="#EBEBF8" opacity="1.000000" stroke="none" 
	d="
M1129.799072,532.479309 
	C1129.332764,531.789612 1129.281860,531.187439 1129.231201,529.848633 
	C1129.506836,521.463196 1129.506958,521.462585 1121.922485,520.246704 
	C1121.598022,520.194641 1121.269165,520.170776 1120.942383,520.133728 
	C1120.942383,520.133728 1120.943237,520.039124 1120.895752,520.037720 
	C1120.844849,518.206299 1120.381226,516.207214 1120.973511,514.596313 
	C1121.512207,513.131287 1123.257446,510.993164 1124.367920,511.053192 
	C1128.616089,511.282654 1129.458008,509.139038 1129.545044,505.619995 
	C1129.602051,503.316162 1128.938599,500.312622 1133.055786,500.453400 
	C1136.801758,500.581451 1138.580933,502.153656 1138.180054,505.997742 
	C1137.728760,510.323700 1139.085938,512.914734 1144.062378,513.099731 
	C1148.159546,513.252075 1146.893311,516.855652 1147.068359,519.288330 
	C1147.270996,522.106384 1145.638916,523.189270 1142.997681,522.898010 
	C1140.113770,522.579956 1138.280518,523.120728 1138.058716,526.674805 
	C1137.638184,533.410583 1137.465210,533.399780 1129.799072,532.479309 
z"/>
<path fill="#EBEBF8" opacity="1.000000" stroke="none" 
	d="
M1098.973022,528.921265 
	C1098.973022,528.921204 1098.684570,528.793518 1098.527344,528.784058 
	C1098.227173,527.125000 1097.864868,525.459229 1097.984497,523.828918 
	C1098.291382,519.643616 1097.543213,516.647095 1092.362183,516.600403 
	C1088.643921,516.566895 1089.225586,513.533447 1089.150024,511.062897 
	C1089.070190,508.457825 1089.962280,506.809814 1092.851196,507.096222 
	C1096.816162,507.489258 1098.275146,505.668488 1097.949585,501.837555 
	C1097.721069,499.150269 1098.104248,496.872375 1101.814575,496.953827 
	C1105.133301,497.026703 1106.369385,498.680023 1106.033691,501.649109 
	C1105.523438,506.163452 1106.665283,508.902618 1111.856323,509.418823 
	C1113.000366,509.532593 1114.348999,512.738159 1114.621460,514.659241 
	C1114.803101,515.939636 1113.074829,518.764709 1112.489014,518.688477 
	C1104.086548,517.594666 1106.133301,523.584717 1105.880249,528.486694 
	C1104.499634,528.972534 1103.136963,529.008606 1101.043213,528.990356 
	C1099.865723,528.931030 1099.419434,528.926147 1098.973022,528.921265 
z"/>
<path fill="#E4E4F4" opacity="1.000000" stroke="none" 
	d="
M1084.605225,474.984375 
	C1092.974609,475.509644 1101.671875,476.215881 1110.593628,477.143738 
	C1102.189697,476.632019 1093.561401,475.898682 1084.605225,474.984375 
z"/>
<path fill="#E4E4F4" opacity="1.000000" stroke="none" 
	d="
M1126.580322,479.013916 
	C1131.301392,479.211914 1136.367432,479.563538 1141.680542,480.127411 
	C1136.926880,479.948975 1131.926147,479.558258 1126.580322,479.013916 
z"/>
<path fill="#E4E4F4" opacity="1.000000" stroke="none" 
	d="
M1072.651367,473.918823 
	C1075.365112,473.868011 1078.401367,474.007721 1081.645142,474.409058 
	C1078.893066,474.483551 1075.933594,474.296448 1072.651367,473.918823 
z"/>
<path fill="#E4E4F4" opacity="1.000000" stroke="none" 
	d="
M1113.723145,477.792511 
	C1115.722412,477.732697 1118.061523,477.805725 1120.613037,478.084961 
	C1118.571289,478.169220 1116.317139,478.047272 1113.723145,477.792511 
z"/>
<path fill="#E4E4F4" opacity="1.000000" stroke="none" 
	d="
M1157.673584,481.841583 
	C1159.301880,481.448822 1161.224854,481.221863 1163.540039,480.984619 
	C1163.932251,480.974335 1164.120605,481.242035 1164.172729,481.393524 
	C1162.139404,481.699127 1160.053833,481.853241 1157.673584,481.841583 
z"/>
<path fill="#E4E4F4" opacity="1.000000" stroke="none" 
	d="
M1148.520752,481.037384 
	C1149.947510,480.905029 1151.691650,480.922180 1153.628418,481.144104 
	C1152.160278,481.294861 1150.499146,481.240875 1148.520752,481.037384 
z"/>
<path fill="#E4E4F4" opacity="1.000000" stroke="none" 
	d="
M1063.519531,473.001587 
	C1064.951416,472.876953 1066.700073,472.909607 1068.643799,473.144897 
	C1067.171509,473.284698 1065.503906,473.221802 1063.519531,473.001587 
z"/>
<path fill="#6FCFBF" opacity="1.000000" stroke="none" 
	d="
M1151.494751,521.500488 
	C1151.513428,521.494507 1151.476074,521.506531 1151.494751,521.500488 
z"/>
<path fill="#E4E4F4" opacity="1.000000" stroke="none" 
	d="
M1164.816406,326.540466 
	C1164.634766,325.508423 1164.547119,324.078827 1164.598755,322.365204 
	C1164.795410,323.435089 1164.852905,324.788971 1164.816406,326.540466 
z"/>
<path fill="#E4E4F4" opacity="1.000000" stroke="none" 
	d="
M1164.768188,341.526794 
	C1164.588257,340.501099 1164.501587,339.080322 1164.550293,337.376465 
	C1164.744263,338.439514 1164.802856,339.785645 1164.768188,341.526794 
z"/>
<path fill="#E4E4F4" opacity="1.000000" stroke="none" 
	d="
M1164.805176,319.732269 
	C1164.588013,319.744843 1164.548462,319.511536 1164.693726,319.154419 
	C1164.760864,319.050537 1164.864990,319.506317 1164.805176,319.732269 
z"/>
<path fill="#7366D2" opacity="1.000000" stroke="none" 
	d="
M1060.881714,570.750061 
	C1061.833496,570.926331 1062.785156,571.102600 1064.398682,571.423828 
	C1066.027344,571.683289 1066.994507,571.797852 1067.961548,571.912415 
	C1068.302002,572.010132 1068.642456,572.107849 1069.494385,572.339600 
	C1070.531860,572.367859 1071.057861,572.262085 1071.583740,572.156250 
	C1072.974854,572.546692 1074.365845,572.937134 1076.413452,573.481934 
	C1078.375732,573.773132 1079.681641,573.910034 1080.987427,574.046936 
	C1081.331909,574.165344 1081.676270,574.283752 1082.295532,574.365051 
	C1083.788208,574.594727 1085.005981,574.861511 1086.951538,575.241211 
	C1089.928345,575.585022 1092.177368,575.815918 1094.590210,576.286743 
	C1095.127319,576.587097 1095.500610,576.647400 1096.243652,576.820068 
	C1097.882812,576.969604 1099.152344,577.006775 1100.600830,577.258179 
	C1101.139404,577.528809 1101.498779,577.585144 1102.230591,577.768616 
	C1103.903076,577.972351 1105.203369,578.049011 1106.764526,578.318298 
	C1107.652222,578.585815 1108.278931,578.660645 1109.239380,578.845459 
	C1110.270386,579.008301 1110.967529,579.061035 1111.917847,579.272034 
	C1112.746338,579.524109 1113.321655,579.617981 1114.270142,579.810669 
	C1115.409058,579.997742 1116.174927,580.085876 1116.940796,580.174011 
	C1116.940796,589.438721 1116.940796,598.703491 1116.940796,608.863159 
	C1110.567871,607.786438 1104.550049,606.849060 1098.562744,605.744873 
	C1068.090454,600.124878 1037.630127,594.439697 1007.156494,588.826904 
	C997.822021,587.107605 997.808777,587.179504 997.288391,577.458618 
	C997.231812,574.640015 997.291504,572.250305 997.365112,568.999268 
	C997.441528,565.818115 997.503967,563.498352 997.566406,561.178589 
	C1007.091980,562.587402 1016.624084,563.954224 1026.141479,565.416443 
	C1036.100830,566.946655 1046.046143,568.568420 1056.720947,570.290405 
	C1058.590088,570.537109 1059.735840,570.643616 1060.881714,570.750061 
M1048.303223,579.674438 
	C1047.311157,578.412537 1046.319092,577.150635 1044.563354,574.917175 
	C1044.134399,578.584900 1043.878540,580.773499 1043.622559,582.962158 
	C1043.384155,582.970642 1043.145752,582.979126 1042.907471,582.987610 
	C1042.451050,580.450867 1041.994751,577.914185 1041.333862,574.240845 
	C1040.103394,576.585083 1039.528809,577.679749 1038.873657,578.927979 
	C1037.316284,577.139038 1036.000610,575.627747 1033.968628,573.293579 
	C1033.968628,578.512268 1033.968628,582.462463 1033.968628,586.412598 
	C1034.324219,586.463745 1034.679932,586.514893 1035.035522,586.566040 
	C1035.521362,585.369385 1036.007202,584.172791 1036.143555,583.836914 
	C1039.470581,585.640442 1042.454102,587.257690 1045.608154,588.967468 
	C1046.318481,587.120483 1046.796265,585.878174 1047.507690,584.028259 
	C1048.453247,585.604004 1048.994507,586.593994 1049.622314,587.525635 
	C1050.191650,588.370728 1050.855469,589.152283 1052.298828,591.030334 
	C1052.298828,585.622070 1052.298828,581.608826 1052.298828,577.707520 
	C1050.766113,578.772095 1049.706299,579.508179 1048.303223,579.674438 
M1066.073364,579.896912 
	C1062.376587,581.462402 1061.668945,584.625977 1063.064331,587.705994 
	C1064.006348,589.785461 1066.307007,591.463257 1068.374268,592.689941 
	C1068.999634,593.060974 1070.876587,591.322632 1073.228394,589.929565 
	C1071.176636,589.468994 1070.720337,589.381592 1070.272217,589.263062 
	C1068.718872,588.852234 1066.749023,588.854065 1065.757324,587.871521 
	C1065.037109,587.158020 1065.612671,585.136719 1065.610352,583.698608 
	C1067.105591,583.713989 1068.600952,583.733093 1070.096191,583.742737 
	C1070.589844,583.745972 1071.117065,583.834961 1071.572388,583.697510 
	C1075.730103,582.442200 1076.436157,584.807556 1076.479248,588.159485 
	C1076.506348,590.258118 1076.873657,592.352356 1077.088379,594.448608 
	C1077.437012,594.416199 1077.785645,594.383789 1078.134277,594.351318 
	C1079.018677,590.502930 1079.903076,586.654602 1080.956787,582.069336 
	C1079.035400,581.972656 1076.499756,582.050476 1074.037109,581.663452 
	C1071.569336,581.275574 1069.174683,580.423767 1066.073364,579.896912 
M1091.382935,593.952698 
	C1091.271484,597.167542 1093.532227,598.308594 1095.904053,597.671631 
	C1097.784302,597.166504 1100.157837,595.430359 1100.735718,593.710815 
	C1102.572510,588.246643 1098.499756,584.277100 1091.383911,584.800842 
	C1091.383911,587.526794 1091.383911,590.310730 1091.382935,593.952698 
M1025.771973,585.640686 
	C1026.868530,585.344238 1028.177490,585.332153 1029.023560,584.700256 
	C1032.114502,582.392212 1033.038574,579.060303 1030.820068,576.025513 
	C1029.659424,574.437866 1026.350464,572.857056 1024.805176,573.426514 
	C1021.125793,574.782043 1021.575867,578.400574 1022.706177,581.524536 
	C1023.195618,582.877197 1024.336548,583.994080 1025.771973,585.640686 
M1085.900879,596.120178 
	C1087.116333,596.120178 1088.331787,596.120178 1090.835205,596.120178 
	C1088.328491,594.215088 1087.129517,593.303833 1085.618652,592.155640 
	C1087.038452,591.239990 1088.006714,590.615601 1089.724609,589.507690 
	C1087.826050,588.714966 1086.499146,588.160950 1084.328247,587.254578 
	C1087.405884,585.908936 1088.511475,585.425598 1089.617065,584.942200 
	C1089.611816,584.554199 1089.606567,584.166138 1089.601196,583.778076 
	C1087.624023,583.472168 1085.646851,583.166260 1082.105225,582.618347 
	C1083.311646,587.895142 1084.234375,591.930969 1085.900879,596.120178 
M1016.278992,571.003906 
	C1012.100098,571.028503 1010.935425,574.170166 1011.696167,577.077881 
	C1012.336731,579.526306 1014.809509,581.575989 1016.771790,583.494812 
	C1017.014587,583.732300 1019.106201,582.079163 1020.477051,581.216492 
	C1017.848389,580.347595 1015.825500,580.183350 1014.630859,579.103149 
	C1013.859924,578.406006 1014.303223,576.366028 1014.202393,574.927795 
	C1016.177734,574.927795 1018.153076,574.927795 1021.150024,574.927795 
	C1019.442688,573.358337 1018.222656,572.236877 1016.278992,571.003906 
M1058.186768,588.112488 
	C1058.859741,586.913025 1059.532593,585.713562 1060.452515,584.073914 
	C1059.539307,583.644836 1058.386841,583.103516 1057.048950,582.474915 
	C1059.015747,581.056946 1059.936035,580.393433 1061.914795,578.966797 
	C1059.017700,578.541931 1057.352417,578.297729 1055.717896,578.058044 
	C1055.392822,578.939514 1055.097290,579.389221 1055.079346,579.849670 
	C1054.996216,581.988098 1054.929932,584.130676 1054.968140,586.269714 
	C1055.055786,591.179443 1055.677856,591.605347 1061.202881,590.326660 
	C1060.202759,589.640381 1059.451294,589.124695 1058.186768,588.112488 
z"/>
<path fill="#EBEBF8" opacity="1.000000" stroke="none" 
	d="
M1094.426514,576.046753 
	C1092.177368,575.815918 1089.928345,575.585022 1087.327637,575.203735 
	C1088.718506,571.582397 1090.805176,571.329895 1094.569092,572.788269 
	C1098.734131,574.402222 1103.649048,573.962952 1108.046875,575.133911 
	C1111.132812,575.955505 1113.899414,577.976257 1116.874756,579.817749 
	C1116.174927,580.085876 1115.409058,579.997742 1114.009277,579.685059 
	C1112.805176,579.344910 1112.234985,579.229370 1111.664795,579.113770 
	C1110.967529,579.061035 1110.270386,579.008301 1108.957031,578.719482 
	C1107.728516,578.364136 1107.115967,578.244873 1106.503540,578.125610 
	C1105.203369,578.049011 1103.903076,577.972351 1101.999878,577.651733 
	C1101.071777,577.286438 1100.746826,577.165161 1100.421753,577.043945 
	C1099.152344,577.006775 1097.882812,576.969604 1096.010254,576.695312 
	C1095.080200,576.320984 1094.753418,576.183899 1094.426514,576.046753 
z"/>
<path fill="#E4E4F4" opacity="1.000000" stroke="none" 
	d="
M997.214478,561.317078 
	C997.503967,563.498352 997.441528,565.818115 997.267883,568.560974 
	C994.199524,566.586304 994.090027,564.077209 997.214478,561.317078 
z"/>
<path fill="#E4E4F4" opacity="1.000000" stroke="none" 
	d="
M1080.826416,573.790283 
	C1079.681641,573.910034 1078.375732,573.773132 1076.731689,573.418823 
	C1077.817505,573.312195 1079.241333,573.422852 1080.826416,573.790283 
z"/>
<path fill="#E4E4F4" opacity="1.000000" stroke="none" 
	d="
M1060.571045,570.605835 
	C1059.735840,570.643616 1058.590088,570.537109 1057.143066,570.252686 
	C1057.981323,570.203613 1059.120850,570.332581 1060.571045,570.605835 
z"/>
<path fill="#E4E4F4" opacity="1.000000" stroke="none" 
	d="
M1067.637817,571.753906 
	C1066.994507,571.797852 1066.027344,571.683289 1064.756348,571.347412 
	C1065.406372,571.282593 1066.360229,571.438965 1067.637817,571.753906 
z"/>
<path fill="#E4E4F4" opacity="1.000000" stroke="none" 
	d="
M964.461487,581.013672 
	C964.463379,580.990601 964.459595,581.036682 964.461487,581.013672 
z"/>
<path fill="#E4E4F4" opacity="1.000000" stroke="none" 
	d="
M1071.065918,572.144958 
	C1071.057861,572.262085 1070.531860,572.367859 1069.759033,572.297607 
	C1069.857544,572.125610 1070.202759,572.129639 1071.065918,572.144958 
z"/>
<path fill="#EBEBF8" opacity="1.000000" stroke="none" 
	d="
M984.731812,416.816864 
	C985.107361,410.709961 985.683228,404.596191 986.626160,398.539520 
	C988.058777,389.337585 989.745789,380.175262 991.325500,370.996216 
	C991.381897,370.668335 991.333923,370.236877 991.525330,370.031708 
	C992.835815,368.627472 994.197205,367.270813 995.542236,365.898865 
	C996.163940,367.579590 997.496216,369.355927 997.285156,370.924561 
	C996.333069,378.000854 994.960938,385.021362 993.707397,392.056122 
	C992.453125,399.094849 991.159973,406.126617 989.913818,413.569000 
	C988.327942,414.929565 986.712219,415.882568 984.731812,416.816864 
z"/>
<path fill="#EBEBF8" opacity="1.000000" stroke="none" 
	d="
M970.492798,386.448181 
	C971.352600,385.276581 971.992920,384.003540 972.957703,383.670441 
	C974.948853,382.983002 977.112976,382.796783 979.205933,382.404388 
	C978.839966,384.229065 979.055542,386.561218 977.993347,387.778412 
	C975.340759,390.818085 975.453186,393.287811 978.673523,396.395386 
	C979.702271,398.250183 980.318115,399.623535 980.933960,400.996887 
	C978.920959,401.168488 976.907959,401.340118 974.502136,401.509399 
	C973.016052,400.072052 971.922729,398.637054 970.488159,396.663971 
	C969.554993,394.120850 968.963013,392.115875 968.371033,390.110870 
	C969.054077,388.998016 969.737122,387.885132 970.492798,386.448181 
z"/>
<path fill="#F4CF74" opacity="1.000000" stroke="none" 
	d="
M968.034424,390.227844 
	C968.963013,392.115875 969.554993,394.120850 970.242554,396.465210 
	C968.290283,397.625610 966.242432,398.446686 964.194519,399.267731 
	C963.749817,398.966125 963.305054,398.664520 962.860352,398.362915 
	C964.472839,395.690216 966.085266,393.017487 968.034424,390.227844 
z"/>
<path fill="#F4CF74" opacity="1.000000" stroke="none" 
	d="
M935.148071,365.992340 
	C939.146057,367.452972 938.459900,369.436981 935.316833,372.886780 
	C935.136414,369.810638 935.022644,367.871552 935.148071,365.992340 
z"/>
<path fill="#F4CF74" opacity="1.000000" stroke="none" 
	d="
M961.650879,380.039215 
	C962.421875,379.513885 963.162659,379.243835 963.903381,378.973755 
	C963.852600,379.550232 963.801758,380.126678 963.750916,380.703156 
	C963.040771,380.566925 962.330688,380.430695 961.650879,380.039215 
z"/>
<path fill="#F4CF74" opacity="1.000000" stroke="none" 
	d="
M1003.565857,424.728455 
	C1000.453674,424.736420 996.979309,424.583649 993.109619,424.257111 
	C996.210754,424.244812 999.707214,424.406281 1003.565857,424.728455 
z"/>
<path fill="#F4CF74" opacity="1.000000" stroke="none" 
	d="
M1018.722656,425.639343 
	C1017.143005,425.761261 1015.334167,425.642792 1013.162170,425.370911 
	C1014.697205,425.277985 1016.595337,425.338470 1018.722656,425.639343 
z"/>
<path fill="#F2CC69" opacity="1.000000" stroke="none" 
	d="
M1059.444458,423.991760 
	C1059.405273,411.336975 1059.720337,398.585541 1059.983154,385.833008 
	C1060.065308,381.852997 1059.758057,377.846771 1060.128174,373.899353 
	C1060.285767,372.219208 1061.725342,370.659271 1062.985107,368.916260 
	C1063.907227,370.455627 1064.863281,372.119904 1064.876709,373.791748 
	C1064.983154,387.009369 1064.997314,400.229492 1064.840088,413.446472 
	C1064.791016,417.580841 1064.444946,421.861877 1059.444458,423.991760 
z"/>
<path fill="#EBEBF8" opacity="1.000000" stroke="none" 
	d="
M1066.321533,427.341736 
	C1065.523315,428.418030 1064.393066,429.604126 1062.851318,430.798492 
	C1063.623047,429.688385 1064.806274,428.569977 1066.321533,427.341736 
z"/>
<path fill="#EBEBF8" opacity="1.000000" stroke="none" 
	d="
M963.510010,572.013916 
	C963.488892,572.020569 963.531189,572.007324 963.510010,572.013916 
z"/>
<path fill="#79D1C4" opacity="1.000000" stroke="none" 
	d="
M1037.008545,511.815674 
	C1037.008667,507.136963 1037.008667,502.923035 1037.008667,498.709137 
	C1037.490601,498.716980 1037.972656,498.724792 1038.454590,498.732635 
	C1038.454590,505.243408 1038.454590,511.754181 1038.454590,518.264954 
	C1038.062500,518.291809 1037.670288,518.318726 1037.278198,518.345581 
	C1037.188232,516.323914 1037.098267,514.302185 1037.008545,511.815674 
z"/>
<path fill="#79D1C4" opacity="1.000000" stroke="none" 
	d="
M1121.080078,520.446289 
	C1121.269165,520.170776 1121.598022,520.194641 1121.922485,520.246704 
	C1129.506958,521.462585 1129.506836,521.463196 1129.147705,529.556030 
	C1126.448608,526.919617 1123.833130,523.839233 1121.080078,520.446289 
z"/>
<path fill="#79D1C4" opacity="1.000000" stroke="none" 
	d="
M1052.323242,515.046387 
	C1054.106567,517.880066 1055.692993,521.009033 1057.426758,524.473145 
	C1052.132690,523.739014 1051.361084,519.982544 1052.323242,515.046387 
z"/>
<path fill="#79D1C4" opacity="1.000000" stroke="none" 
	d="
M1055.818481,483.927429 
	C1054.341064,483.679840 1053.216675,483.413696 1052.092163,483.147522 
	C1052.132690,482.617371 1052.173218,482.087219 1052.213745,481.557068 
	C1054.361816,481.458374 1056.509766,481.359711 1058.657715,481.261047 
	C1058.746826,481.722046 1058.835815,482.183014 1058.924927,482.644012 
	C1058.007080,483.065643 1057.089233,483.487244 1055.818481,483.927429 
z"/>
<path fill="#79D1C4" opacity="1.000000" stroke="none" 
	d="
M1047.945801,490.752319 
	C1046.945435,490.804230 1046.095215,490.597168 1045.244995,490.390137 
	C1045.793823,489.507812 1046.342529,488.625488 1046.891235,487.743164 
	C1047.292725,488.659882 1047.694336,489.576630 1047.945801,490.752319 
z"/>
<path fill="#79D1C4" opacity="1.000000" stroke="none" 
	d="
M1045.967773,508.434448 
	C1045.528931,507.158783 1045.333740,505.898376 1045.138550,504.638000 
	C1045.642334,504.609711 1046.146118,504.581421 1046.649902,504.553162 
	C1046.503662,505.851990 1046.357544,507.150848 1045.967773,508.434448 
z"/>
<path fill="#79D1C4" opacity="1.000000" stroke="none" 
	d="
M1058.256104,525.802124 
	C1059.417847,526.392517 1060.651245,527.356689 1062.084595,528.588989 
	C1060.965576,527.963318 1059.646851,527.069580 1058.256104,525.802124 
z"/>
<path fill="#79D1C4" opacity="1.000000" stroke="none" 
	d="
M1099.151611,529.042297 
	C1099.419434,528.926147 1099.865723,528.931030 1100.635254,529.026855 
	C1100.415649,529.132996 1099.872925,529.148132 1099.151611,529.042297 
z"/>
<path fill="#EBEBF8" opacity="1.000000" stroke="none" 
	d="
M1002.376953,402.491547 
	C1005.422546,396.146820 1007.410217,390.019806 1000.765564,384.081451 
	C1005.182617,382.641083 1008.124512,382.423187 1010.201904,385.735260 
	C1012.048096,388.678741 1015.791504,391.316833 1012.820923,395.373779 
	C1010.276062,398.849396 1009.087646,404.541595 1002.376953,402.491547 
z"/>
<path fill="#F2CC69" opacity="1.000000" stroke="none" 
	d="
M981.278198,400.910370 
	C980.318115,399.623535 979.702271,398.250183 978.990845,396.574738 
	C979.078125,394.102722 979.260925,391.932800 979.538818,388.635681 
	C984.027344,393.596649 984.390930,397.915588 981.278198,400.910370 
z"/>
<path fill="#E4E4F4" opacity="1.000000" stroke="none" 
	d="
M1048.474854,579.959351 
	C1049.706299,579.508179 1050.766113,578.772095 1052.298828,577.707520 
	C1052.298828,581.608826 1052.298828,585.622070 1052.298828,591.030334 
	C1050.855469,589.152283 1050.191650,588.370728 1049.622314,587.525635 
	C1048.994507,586.593994 1048.453247,585.604004 1047.507690,584.028259 
	C1046.796265,585.878174 1046.318481,587.120483 1045.608154,588.967468 
	C1042.454102,587.257690 1039.470581,585.640442 1036.143555,583.836914 
	C1036.007202,584.172791 1035.521362,585.369385 1035.035522,586.566040 
	C1034.679932,586.514893 1034.324219,586.463745 1033.968628,586.412598 
	C1033.968628,582.462463 1033.968628,578.512268 1033.968628,573.293579 
	C1036.000610,575.627747 1037.316284,577.139038 1038.873657,578.927979 
	C1039.528809,577.679749 1040.103394,576.585083 1041.333862,574.240845 
	C1041.994751,577.914185 1042.451050,580.450867 1042.907471,582.987610 
	C1043.145752,582.979126 1043.384155,582.970642 1043.622559,582.962158 
	C1043.878540,580.773499 1044.134399,578.584900 1044.563354,574.917175 
	C1046.319092,577.150635 1047.311157,578.412537 1048.474854,579.959351 
z"/>
<path fill="#E4E4F4" opacity="1.000000" stroke="none" 
	d="
M1066.410645,579.836121 
	C1069.174683,580.423767 1071.569336,581.275574 1074.037109,581.663452 
	C1076.499756,582.050476 1079.035400,581.972656 1080.956787,582.069336 
	C1079.903076,586.654602 1079.018677,590.502930 1078.134277,594.351318 
	C1077.785645,594.383789 1077.437012,594.416199 1077.088379,594.448608 
	C1076.873657,592.352356 1076.506348,590.258118 1076.479248,588.159485 
	C1076.436157,584.807556 1075.730103,582.442200 1071.572388,583.697510 
	C1071.117065,583.834961 1070.589844,583.745972 1070.096191,583.742737 
	C1068.600952,583.733093 1067.105591,583.713989 1065.610352,583.698608 
	C1065.612671,585.136719 1065.037109,587.158020 1065.757324,587.871521 
	C1066.749023,588.854065 1068.718872,588.852234 1070.272217,589.263062 
	C1070.720337,589.381592 1071.176636,589.468994 1073.228394,589.929565 
	C1070.876587,591.322632 1068.999634,593.060974 1068.374268,592.689941 
	C1066.307007,591.463257 1064.006348,589.785461 1063.064331,587.705994 
	C1061.668945,584.625977 1062.376587,581.462402 1066.410645,579.836121 
z"/>
<path fill="#E4E4F4" opacity="1.000000" stroke="none" 
	d="
M1091.383423,593.523682 
	C1091.383911,590.310730 1091.383911,587.526794 1091.383911,584.800842 
	C1098.499756,584.277100 1102.572510,588.246643 1100.735718,593.710815 
	C1100.157837,595.430359 1097.784302,597.166504 1095.904053,597.671631 
	C1093.532227,598.308594 1091.271484,597.167542 1091.383423,593.523682 
M1098.367798,592.473694 
	C1097.598633,590.716064 1096.829346,588.958435 1096.060181,587.200867 
	C1095.419678,587.399353 1094.779175,587.597900 1094.138672,587.796387 
	C1094.138672,589.353149 1093.906738,590.953064 1094.186401,592.457764 
	C1094.789673,595.702332 1096.229736,596.012817 1098.367798,592.473694 
z"/>
<path fill="#E4E4F4" opacity="1.000000" stroke="none" 
	d="
M1025.476807,585.429382 
	C1024.336548,583.994080 1023.195618,582.877197 1022.706177,581.524536 
	C1021.575867,578.400574 1021.125793,574.782043 1024.805176,573.426514 
	C1026.350464,572.857056 1029.659424,574.437866 1030.820068,576.025513 
	C1033.038574,579.060303 1032.114502,582.392212 1029.023560,584.700256 
	C1028.177490,585.332153 1026.868530,585.344238 1025.476807,585.429382 
M1028.253418,576.375916 
	C1027.065308,576.636780 1024.876343,576.847168 1024.860107,577.167175 
	C1024.784790,578.660645 1025.128052,580.263062 1025.730347,581.648926 
	C1025.909912,582.061890 1027.416748,581.897949 1028.315430,581.998352 
	C1028.470093,580.344482 1028.624634,578.690552 1028.253418,576.375916 
z"/>
<path fill="#E4E4F4" opacity="1.000000" stroke="none" 
	d="
M1085.529053,596.043518 
	C1084.234375,591.930969 1083.311646,587.895142 1082.105225,582.618347 
	C1085.646851,583.166260 1087.624023,583.472168 1089.601196,583.778076 
	C1089.606567,584.166138 1089.611816,584.554199 1089.617065,584.942200 
	C1088.511475,585.425598 1087.405884,585.908936 1084.328247,587.254578 
	C1086.499146,588.160950 1087.826050,588.714966 1089.724609,589.507690 
	C1088.006714,590.615601 1087.038452,591.239990 1085.618652,592.155640 
	C1087.129517,593.303833 1088.328491,594.215088 1090.835205,596.120178 
	C1088.331787,596.120178 1087.116333,596.120178 1085.529053,596.043518 
z"/>
<path fill="#E4E4F4" opacity="1.000000" stroke="none" 
	d="
M1016.640869,571.059631 
	C1018.222656,572.236877 1019.442688,573.358337 1021.150024,574.927795 
	C1018.153076,574.927795 1016.177734,574.927795 1014.202393,574.927795 
	C1014.303223,576.366028 1013.859924,578.406006 1014.630859,579.103149 
	C1015.825500,580.183350 1017.848389,580.347595 1020.477051,581.216492 
	C1019.106201,582.079163 1017.014587,583.732300 1016.771790,583.494812 
	C1014.809509,581.575989 1012.336731,579.526306 1011.696167,577.077881 
	C1010.935425,574.170166 1012.100098,571.028503 1016.640869,571.059631 
z"/>
<path fill="#E4E4F4" opacity="1.000000" stroke="none" 
	d="
M1058.443237,588.360718 
	C1059.451294,589.124695 1060.202759,589.640381 1061.202881,590.326660 
	C1055.677856,591.605347 1055.055786,591.179443 1054.968140,586.269714 
	C1054.929932,584.130676 1054.996216,581.988098 1055.079346,579.849670 
	C1055.097290,579.389221 1055.392822,578.939514 1055.717896,578.058044 
	C1057.352417,578.297729 1059.017700,578.541931 1061.914795,578.966797 
	C1059.936035,580.393433 1059.015747,581.056946 1057.048950,582.474915 
	C1058.386841,583.103516 1059.539307,583.644836 1060.452515,584.073914 
	C1059.532593,585.713562 1058.859741,586.913025 1058.443237,588.360718 
z"/>
<path fill="#E4E4F4" opacity="1.000000" stroke="none" 
	d="
M1111.917847,579.272034 
	C1112.234985,579.229370 1112.805176,579.344910 1113.636230,579.586121 
	C1113.321655,579.617981 1112.746338,579.524109 1111.917847,579.272034 
z"/>
<path fill="#E4E4F4" opacity="1.000000" stroke="none" 
	d="
M1106.764526,578.318298 
	C1107.115967,578.244873 1107.728516,578.364136 1108.623291,578.609375 
	C1108.278931,578.660645 1107.652222,578.585815 1106.764526,578.318298 
z"/>
<path fill="#E4E4F4" opacity="1.000000" stroke="none" 
	d="
M1100.600830,577.258179 
	C1100.746826,577.165161 1101.071777,577.286438 1101.627563,577.524536 
	C1101.498779,577.585144 1101.139404,577.528809 1100.600830,577.258179 
z"/>
<path fill="#E4E4F4" opacity="1.000000" stroke="none" 
	d="
M1094.590210,576.286743 
	C1094.753418,576.183899 1095.080200,576.320984 1095.640625,576.582886 
	C1095.500610,576.647400 1095.127319,576.587097 1094.590210,576.286743 
z"/>
<path fill="#7366D2" opacity="1.000000" stroke="none" 
	d="
M1098.270630,592.871399 
	C1096.229736,596.012817 1094.789673,595.702332 1094.186401,592.457764 
	C1093.906738,590.953064 1094.138672,589.353149 1094.138672,587.796387 
	C1094.779175,587.597900 1095.419678,587.399353 1096.060181,587.200867 
	C1096.829346,588.958435 1097.598633,590.716064 1098.270630,592.871399 
z"/>
<path fill="#7366D2" opacity="1.000000" stroke="none" 
	d="
M1028.516357,576.706299 
	C1028.624634,578.690552 1028.470093,580.344482 1028.315430,581.998352 
	C1027.416748,581.897949 1025.909912,582.061890 1025.730347,581.648926 
	C1025.128052,580.263062 1024.784790,578.660645 1024.860107,577.167175 
	C1024.876343,576.847168 1027.065308,576.636780 1028.516357,576.706299 
z"/>
</svg>